<svg width="60" height="60" viewBox="0 0 60 60" fill="none" xmlns="http://www.w3.org/2000/svg">
<g clip-path="url(#clip0_36_44604)">
<path opacity="0.4" d="M1.875 35.6201C1.875 38.9951 4.10156 41.8545 7.18359 42.792C7.41797 42.8623 7.61719 43.0264 7.73438 43.249C7.85156 43.4717 7.875 43.7295 7.80469 43.9639C7.60547 44.585 7.5 45.2529 7.5 45.9326C7.5 49.5537 10.4414 52.4951 14.0625 52.4951C14.6602 52.4951 15.2344 52.4131 15.7852 52.2725C16.043 52.2021 16.3125 52.249 16.5352 52.3896C16.7578 52.5303 16.9102 52.7646 16.957 53.0225C17.4258 55.917 19.9453 58.1201 22.9688 58.1201C26.2031 58.1201 28.8398 55.6123 29.0508 52.4365C29.0508 52.4014 29.0625 52.3662 29.0625 52.3311V52.0264V33.7451H22.5C20.9414 33.7451 19.6875 34.999 19.6875 36.5576V37.6123C21.3047 38.0342 22.5 39.499 22.5 41.2451C22.5 43.3193 20.8242 44.9951 18.75 44.9951C16.6758 44.9951 15 43.3193 15 41.2451C15 39.499 16.1953 38.0342 17.8125 37.6123V36.5576C17.8125 33.9678 19.9102 31.8701 22.5 31.8701H29.0625V17.8076H24.2578C23.8359 19.4248 22.3711 20.6201 20.625 20.6201C18.5508 20.6201 16.875 18.9443 16.875 16.8701C16.875 14.7959 18.5508 13.1201 20.625 13.1201C22.3711 13.1201 23.8359 14.3154 24.2578 15.9326H29.0625V7.49512C29.0625 4.38965 26.543 1.87012 23.4375 1.87012C20.6016 1.87012 18.2578 3.96777 17.8711 6.68652C17.8008 7.15527 17.4023 7.49512 16.9336 7.49512H16.875C13.7695 7.49512 11.25 10.0146 11.25 13.1201C11.25 14.0225 11.4609 14.8662 11.8359 15.6162C11.9648 15.8857 11.9648 16.2021 11.8242 16.46C11.6836 16.7178 11.4375 16.9053 11.1445 16.9521C8.01562 17.4561 5.625 20.1631 5.625 23.4326C5.625 24.874 6.09375 26.1982 6.87891 27.2881C7.04297 27.5225 7.10156 27.8154 7.01953 28.0967C6.9375 28.3779 6.73828 28.6006 6.48047 28.7061C3.77344 29.8311 1.875 32.5029 1.875 35.6201ZM30.9375 7.49512V15.9326H37.5C40.0898 15.9326 42.1875 18.0303 42.1875 20.6201V22.6123C43.8047 23.0342 45 24.499 45 26.2451C45 28.3193 43.3242 29.9951 41.25 29.9951C39.1758 29.9951 37.5 28.3193 37.5 26.2451C37.5 24.499 38.6953 23.0342 40.3125 22.6123V20.6201C40.3125 19.0615 39.0586 17.8076 37.5 17.8076H30.9375V42.1826H39.4922C39.9141 40.5654 41.3789 39.3701 43.125 39.3701C45.1992 39.3701 46.875 41.0459 46.875 43.1201C46.875 45.1943 45.1992 46.8701 43.125 46.8701C41.3789 46.8701 39.9141 45.6748 39.4922 44.0576H30.9375V52.0264V52.3311C30.9492 52.3662 30.9492 52.4014 30.9492 52.4365C31.1602 55.6123 33.7969 58.1201 37.0312 58.1201C40.0547 58.1201 42.5742 55.917 43.043 53.0225C43.0898 52.7646 43.2422 52.5303 43.4648 52.3896C43.6875 52.249 43.957 52.2021 44.2148 52.2725C44.7656 52.4248 45.3398 52.4951 45.9375 52.4951C49.5586 52.4951 52.5 49.5537 52.5 45.9326C52.5 45.2529 52.3945 44.585 52.207 43.9756C52.1367 43.7412 52.1602 43.4834 52.2773 43.2607C52.3945 43.0381 52.5938 42.874 52.8281 42.8037C55.8984 41.8662 58.1367 39.0068 58.1367 35.6318C58.1367 32.5146 56.2383 29.8428 53.5312 28.7061C53.2617 28.6006 53.0625 28.3662 52.9922 28.0967C52.9219 27.8271 52.9688 27.5225 53.1328 27.2881C53.9062 26.1982 54.375 24.874 54.375 23.4326C54.375 20.1631 51.9844 17.4561 48.8672 16.9521C48.5742 16.9053 48.3164 16.7178 48.1875 16.46C48.0586 16.2021 48.0469 15.8857 48.1758 15.6162C48.5508 14.8662 48.7617 14.0225 48.7617 13.1201C48.7617 10.0146 46.2422 7.49512 43.1367 7.49512H43.0781C42.6094 7.49512 42.2109 7.15527 42.1406 6.68652C41.7422 3.96777 39.3984 1.87012 36.5625 1.87012C33.457 1.87012 30.9375 4.38965 30.9375 7.49512Z" fill="#E84DB5"/>
<path d="M16.1602 5.65527C16.9922 2.39746 19.9336 -0.00488281 23.4375 -0.00488281C26.2617 -0.00488281 28.7227 1.55371 30 3.8623C31.2773 1.55371 33.7383 -0.00488281 36.5625 -0.00488281C40.0664 -0.00488281 43.0078 2.39746 43.8398 5.65527C47.6484 6.00684 50.625 9.21777 50.625 13.1201C50.625 13.9053 50.5078 14.6553 50.2852 15.3584C53.7422 16.4131 56.25 19.624 56.25 23.4326C56.25 24.8857 55.8867 26.2568 55.2305 27.4521C58.0781 29.0576 60 32.1162 60 35.6201C60 39.5225 57.6094 42.874 54.2109 44.2803C54.3164 44.8193 54.375 45.3701 54.375 45.9326C54.375 50.5967 50.6016 54.3701 45.9375 54.3701C45.5039 54.3701 45.0938 54.335 44.6719 54.2764C43.7109 57.5811 40.6523 59.9951 37.0312 59.9951C33.9844 59.9951 31.3477 58.2842 30 55.7764C28.6523 58.2842 26.0156 59.9951 22.9688 59.9951C19.3477 59.9951 16.2891 57.5811 15.3281 54.2764C14.918 54.335 14.4961 54.3701 14.0625 54.3701C9.39844 54.3701 5.625 50.5967 5.625 45.9326C5.625 45.3701 5.68359 44.8193 5.78906 44.2803C2.39063 42.874 0 39.5225 0 35.6201C0 32.1162 1.92188 29.0576 4.76953 27.4521C4.11328 26.2568 3.75 24.8857 3.75 23.4326C3.75 19.6357 6.25781 16.4248 9.71484 15.3584C9.49219 14.6553 9.375 13.9053 9.375 13.1201C9.375 9.21777 12.3516 6.00684 16.1602 5.65527ZM23.4375 1.87012C20.6016 1.87012 18.2578 3.96777 17.8711 6.68652C17.8008 7.15527 17.4023 7.49512 16.9336 7.49512H16.875C13.7695 7.49512 11.25 10.0146 11.25 13.1201C11.25 14.0225 11.4609 14.8662 11.8359 15.6162C11.9648 15.8857 11.9648 16.2021 11.8242 16.46C11.6836 16.7178 11.4375 16.9053 11.1445 16.9521C8.01562 17.4561 5.625 20.1631 5.625 23.4326C5.625 24.874 6.09375 26.1982 6.87891 27.2881C7.04297 27.5225 7.10156 27.8154 7.01953 28.0967C6.9375 28.3779 6.73828 28.6006 6.48047 28.7061C3.77344 29.8311 1.875 32.5029 1.875 35.6201C1.875 38.9951 4.10156 41.8545 7.18359 42.792C7.41797 42.8623 7.61719 43.0264 7.73438 43.249C7.85156 43.4717 7.875 43.7295 7.80469 43.9639C7.60547 44.585 7.5 45.2529 7.5 45.9326C7.5 49.5537 10.4414 52.4951 14.0625 52.4951C14.6602 52.4951 15.2344 52.4131 15.7852 52.2725C16.043 52.2021 16.3125 52.249 16.5352 52.3896C16.7578 52.5303 16.9102 52.7646 16.957 53.0225C17.4258 55.917 19.9453 58.1201 22.9688 58.1201C26.2031 58.1201 28.8398 55.6123 29.0508 52.4365C29.0508 52.4014 29.0625 52.3662 29.0625 52.3311V52.0264V33.7451H22.5C20.9414 33.7451 19.6875 34.999 19.6875 36.5576V37.6123C21.3047 38.0342 22.5 39.499 22.5 41.2451C22.5 43.3193 20.8242 44.9951 18.75 44.9951C16.6758 44.9951 15 43.3193 15 41.2451C15 39.499 16.1953 38.0342 17.8125 37.6123V36.5576C17.8125 33.9678 19.9102 31.8701 22.5 31.8701H29.0625V17.8076H24.2578C23.8359 19.4248 22.3711 20.6201 20.625 20.6201C18.5508 20.6201 16.875 18.9443 16.875 16.8701C16.875 14.7959 18.5508 13.1201 20.625 13.1201C22.3711 13.1201 23.8359 14.3154 24.2578 15.9326H29.0625V7.49512C29.0625 4.38965 26.543 1.87012 23.4375 1.87012ZM30.9375 17.8076V42.1826H39.4922C39.9141 40.5654 41.3789 39.3701 43.125 39.3701C45.1992 39.3701 46.875 41.0459 46.875 43.1201C46.875 45.1943 45.1992 46.8701 43.125 46.8701C41.3789 46.8701 39.9141 45.6748 39.4922 44.0576H30.9375V52.0264V52.3311C30.9492 52.3662 30.9492 52.4014 30.9492 52.4365C31.1602 55.6123 33.7969 58.1201 37.0312 58.1201C40.0547 58.1201 42.5742 55.917 43.043 53.0225C43.0898 52.7646 43.2422 52.5303 43.4648 52.3896C43.6875 52.249 43.957 52.2021 44.2148 52.2725C44.7656 52.4248 45.3398 52.4951 45.9375 52.4951C49.5586 52.4951 52.5 49.5537 52.5 45.9326C52.5 45.2529 52.3945 44.585 52.207 43.9756C52.1367 43.7412 52.1602 43.4834 52.2773 43.2607C52.3945 43.0381 52.5938 42.874 52.8281 42.8037C55.8984 41.8662 58.1367 39.0068 58.1367 35.6318C58.1367 32.5146 56.2383 29.8428 53.5312 28.7061C53.2617 28.6006 53.0625 28.3662 52.9922 28.0967C52.9219 27.8271 52.9688 27.5225 53.1328 27.2881C53.9062 26.1982 54.375 24.874 54.375 23.4326C54.375 20.1631 51.9844 17.4561 48.8672 16.9521C48.5742 16.9053 48.3164 16.7178 48.1875 16.46C48.0586 16.2021 48.0469 15.8857 48.1758 15.6162C48.5508 14.8662 48.7617 14.0225 48.7617 13.1201C48.7617 10.0146 46.2422 7.49512 43.1367 7.49512H43.0781C42.6094 7.49512 42.2109 7.15527 42.1406 6.68652C41.7422 3.96777 39.3984 1.87012 36.5625 1.87012C33.457 1.87012 30.9375 4.38965 30.9375 7.49512V15.9326H37.5C40.0898 15.9326 42.1875 18.0303 42.1875 20.6201V22.6123C43.8047 23.0342 45 24.499 45 26.2451C45 28.3193 43.3242 29.9951 41.25 29.9951C39.1758 29.9951 37.5 28.3193 37.5 26.2451C37.5 24.499 38.6953 23.0342 40.3125 22.6123V20.6201C40.3125 19.0615 39.0586 17.8076 37.5 17.8076H30.9375ZM20.625 18.7451C21.1223 18.7451 21.5992 18.5476 21.9508 18.1959C22.3025 17.8443 22.5 17.3674 22.5 16.8701C22.5 16.3728 22.3025 15.8959 21.9508 15.5443C21.5992 15.1927 21.1223 14.9951 20.625 14.9951C20.1277 14.9951 19.6508 15.1927 19.2992 15.5443C18.9475 15.8959 18.75 16.3728 18.75 16.8701C18.75 17.3674 18.9475 17.8443 19.2992 18.1959C19.6508 18.5476 20.1277 18.7451 20.625 18.7451ZM18.75 43.1201C19.2473 43.1201 19.7242 42.9226 20.0758 42.5709C20.4275 42.2193 20.625 41.7424 20.625 41.2451C20.625 40.7478 20.4275 40.2709 20.0758 39.9193C19.7242 39.5677 19.2473 39.3701 18.75 39.3701C18.2527 39.3701 17.7758 39.5677 17.4242 39.9193C17.0725 40.2709 16.875 40.7478 16.875 41.2451C16.875 41.7424 17.0725 42.2193 17.4242 42.5709C17.7758 42.9226 18.2527 43.1201 18.75 43.1201ZM43.125 26.2451C43.125 25.7478 42.9275 25.2709 42.5758 24.9193C42.2242 24.5677 41.7473 24.3701 41.25 24.3701C40.7527 24.3701 40.2758 24.5677 39.9242 24.9193C39.5725 25.2709 39.375 25.7478 39.375 26.2451C39.375 26.7424 39.5725 27.2193 39.9242 27.5709C40.2758 27.9226 40.7527 28.1201 41.25 28.1201C41.7473 28.1201 42.2242 27.9226 42.5758 27.5709C42.9275 27.2193 43.125 26.7424 43.125 26.2451ZM43.125 44.9951C43.6223 44.9951 44.0992 44.7976 44.4508 44.4459C44.8025 44.0943 45 43.6174 45 43.1201C45 42.6228 44.8025 42.1459 44.4508 41.7943C44.0992 41.4427 43.6223 41.2451 43.125 41.2451C42.6277 41.2451 42.1508 41.4427 41.7992 41.7943C41.4475 42.1459 41.25 42.6228 41.25 43.1201C41.25 43.6174 41.4475 44.0943 41.7992 44.4459C42.1508 44.7976 42.6277 44.9951 43.125 44.9951Z" fill="#E84DB5"/>
</g>
<defs>
<clipPath id="clip0_36_44604">
<rect width="60" height="60" fill="white" transform="translate(0 -0.00488281)"/>
</clipPath>
</defs>
</svg>
