<svg width="60" height="60" viewBox="0 0 60 60" fill="none" xmlns="http://www.w3.org/2000/svg">
<g clip-path="url(#clip0_36_44700)">
<path opacity="0.4" d="M38.7417 11.1211C38.5894 10.2305 38.8823 9.31641 39.5269 8.67188L45.4566 2.74219L47.6948 10.9688L39.9956 18.668L38.7417 11.1211ZM41.3316 19.9922L49.0308 12.293L57.2573 14.543L51.3277 20.4727C50.6831 21.1172 49.7691 21.4102 48.8784 21.2578L41.3316 20.0039V19.9922Z" fill="#E84DB5"/>
<path d="M38.9062 1.34766C36.0938 0.46875 33.1055 0 30 0C13.4297 0 0 13.4297 0 30C0 46.5703 13.4297 60 30 60C46.5703 60 60 46.5703 60 30C60 26.8945 59.5312 23.9062 58.6523 21.0938L57.1406 22.6055C57.7852 24.9609 58.125 27.4336 58.125 30C58.125 45.5273 45.5273 58.125 30 58.125C14.4727 58.125 1.875 45.5273 1.875 30C1.875 14.4727 14.4727 1.875 30 1.875C32.5547 1.875 35.0391 2.21484 37.3945 2.85938L38.9062 1.34766ZM49.4531 26.9297C48.9609 26.9414 48.457 26.8945 47.9531 26.8125L47.5195 26.7422C47.7188 27.7969 47.8242 28.8984 47.8242 30.0117C47.8242 39.8438 39.8438 47.8242 30.0117 47.8242C20.1797 47.8242 12.1992 39.8438 12.1992 30.0117C12.1992 20.1797 20.1797 12.1992 30.0117 12.1992C31.125 12.1992 32.2148 12.3047 33.2812 12.5039L33.2109 12.0703C33.1289 11.5664 33.0938 11.0742 33.0938 10.5703C32.0859 10.418 31.0664 10.3359 30.0117 10.3359C19.125 10.3125 10.3125 19.125 10.3125 30C10.3125 40.875 19.125 49.6875 30 49.6875C40.875 49.6875 49.6875 40.875 49.6875 30C49.6875 28.957 49.6055 27.9258 49.4531 26.918V26.9297ZM30 21.5625C25.3359 21.5625 21.5625 25.3359 21.5625 30C21.5625 34.6641 25.3359 38.4375 30 38.4375C34.6641 38.4375 38.4375 34.6641 38.4375 30C38.4375 29.4375 38.3789 28.8867 38.2734 28.3477L36.5625 30.0703C36.5273 33.668 33.5977 36.5625 30 36.5625C26.3789 36.5625 23.4375 33.6211 23.4375 30C23.4375 26.4023 26.3438 23.4727 29.9297 23.4375L31.6406 21.7266C31.1133 21.6211 30.5625 21.5625 29.9883 21.5625H30ZM47.707 10.9688L40.0078 18.668L38.7422 11.1211C38.5898 10.2305 38.8828 9.31641 39.5273 8.67188L45.457 2.74219L47.6953 10.9688H47.707ZM39.7031 21.6211L48.5742 23.0977C50.0625 23.3438 51.5859 22.8633 52.6641 21.7852L58.5938 15.8555C59.6133 14.8359 59.1445 13.1016 57.7617 12.7266L49.5117 10.4883L47.2617 2.25C46.8867 0.855469 45.1406 0.398438 44.1328 1.41797L38.2031 7.34766C37.1367 8.41406 36.6445 9.9375 36.8906 11.4375L38.3672 20.3086L29.332 29.3438C28.9688 29.707 28.9688 30.3047 29.332 30.668C29.6953 31.0313 30.293 31.0313 30.6562 30.668L39.6914 21.6328L39.7031 21.6211ZM41.332 19.9922L49.0312 12.293L57.2578 14.543L51.3281 20.4727C50.6836 21.1172 49.7695 21.4102 48.8789 21.2578L41.332 20.0039V19.9922Z" fill="#E84DB5"/>
</g>
<defs>
<clipPath id="clip0_36_44700">
<rect width="60" height="60" fill="white"/>
</clipPath>
</defs>
</svg>
