<svg width="29" height="32" viewBox="0 0 29 32" fill="none" xmlns="http://www.w3.org/2000/svg">
    <g clip-path="url(#clip0_200_144)">
        <path opacity="0.4" d="M1.5 11.9951V27.9951C1.5 29.6514 2.84375 30.9951 4.5 30.9951H24.5C26.1562 30.9951 27.5 29.6514 27.5 27.9951V11.9951H1.5ZM9.64375 16.1389C9.8375 15.9451 10.1562 15.9451 10.35 16.1389L14.5 20.2889L18.6437 16.1451C18.8375 15.9514 19.1562 15.9514 19.35 16.1451C19.5438 16.3389 19.5438 16.6576 19.35 16.8514L15.2063 20.9951L19.35 25.1389C19.5438 25.3326 19.5438 25.6514 19.35 25.8451C19.1562 26.0389 18.8375 26.0389 18.6437 25.8451L14.5 21.7014L10.3562 25.8451C10.1625 26.0389 9.84375 26.0389 9.65 25.8451C9.45625 25.6514 9.45625 25.3326 9.65 25.1389L13.7937 20.9951L9.65 16.8514C9.45625 16.6576 9.45625 16.3389 9.65 16.1451L9.64375 16.1389Z" fill="#E84DB5"/>
        <path d="M8 -0.00488281C8.275 -0.00488281 8.5 0.220117 8.5 0.495117V3.99512H20.5V0.495117C20.5 0.220117 20.725 -0.00488281 21 -0.00488281C21.275 -0.00488281 21.5 0.220117 21.5 0.495117V3.99512H24.5C26.7062 3.99512 28.5 5.78887 28.5 7.99512V10.9951V11.9951V27.9951C28.5 30.2014 26.7062 31.9951 24.5 31.9951H4.5C2.29375 31.9951 0.5 30.2014 0.5 27.9951V11.9951V10.9951V7.99512C0.5 5.78887 2.29375 3.99512 4.5 3.99512H7.5V0.495117C7.5 0.220117 7.725 -0.00488281 8 -0.00488281ZM27.5 11.9951H1.5V27.9951C1.5 29.6514 2.84375 30.9951 4.5 30.9951H24.5C26.1562 30.9951 27.5 29.6514 27.5 27.9951V11.9951ZM7.5 7.49512V4.99512H4.5C2.84375 4.99512 1.5 6.33887 1.5 7.99512V10.9951H27.5V7.99512C27.5 6.33887 26.1562 4.99512 24.5 4.99512H21.5V7.49512C21.5 7.77012 21.275 7.99512 21 7.99512C20.725 7.99512 20.5 7.77012 20.5 7.49512V4.99512H8.5V7.49512C8.5 7.77012 8.275 7.99512 8 7.99512C7.725 7.99512 7.5 7.77012 7.5 7.49512ZM19.3563 25.8514C19.1625 26.0451 18.8438 26.0451 18.65 25.8514L14.5 21.7014L10.3562 25.8451C10.1625 26.0389 9.84375 26.0389 9.65 25.8451C9.45625 25.6514 9.45625 25.3326 9.65 25.1389L13.7937 20.9951L9.65 16.8514C9.45625 16.6576 9.45625 16.3389 9.65 16.1451C9.84375 15.9514 10.1625 15.9514 10.3562 16.1451L14.5 20.2889L18.6437 16.1451C18.8375 15.9514 19.1562 15.9514 19.35 16.1451C19.5438 16.3389 19.5438 16.6576 19.35 16.8514L15.2063 20.9951L19.35 25.1389C19.5438 25.3326 19.5438 25.6514 19.35 25.8451L19.3563 25.8514Z" fill="#E84DB5"/>
    </g>
    <defs>
        <clipPath id="clip0_200_144">
            <rect width="28" height="32" fill="white" transform="translate(0.5 -0.00488281)"/>
        </clipPath>
    </defs>
</svg>