<svg width="75" height="60" viewBox="0 0 75 60" fill="none" xmlns="http://www.w3.org/2000/svg">
<g clip-path="url(#clip0_36_44611)">
<path opacity="0.4" d="M1.875 35.6201C1.875 36.3588 2.02049 37.0903 2.30318 37.7727C2.58586 38.4552 3.00019 39.0753 3.52252 39.5976C4.04485 40.1199 4.66495 40.5343 5.34741 40.8169C6.02986 41.0996 6.76131 41.2451 7.5 41.2451C8.23869 41.2451 8.97014 41.0996 9.65259 40.8169C10.3351 40.5343 10.9551 40.1199 11.4775 39.5976C11.9998 39.0753 12.4141 38.4552 12.6968 37.7727C12.9795 37.0903 13.125 36.3588 13.125 35.6201C13.125 34.8814 12.9795 34.15 12.6968 33.4675C12.4141 32.7851 11.9998 32.165 11.4775 31.6426C10.9551 31.1203 10.3351 30.706 9.65259 30.4233C8.97014 30.1406 8.23869 29.9951 7.5 29.9951C6.76131 29.9951 6.02986 30.1406 5.34741 30.4233C4.66495 30.706 4.04485 31.1203 3.52252 31.6426C3.00019 32.165 2.58586 32.7851 2.30318 33.4675C2.02049 34.15 1.875 34.8814 1.875 35.6201ZM20.625 7.49512C20.625 8.2338 20.7705 8.96526 21.0532 9.64771C21.3359 10.3302 21.7502 10.9503 22.2725 11.4726C22.7949 11.9949 23.4149 12.4093 24.0974 12.6919C24.7799 12.9746 25.5113 13.1201 26.25 13.1201C26.9887 13.1201 27.7201 12.9746 28.4026 12.6919C29.0851 12.4093 29.7051 11.9949 30.2275 11.4726C30.7498 10.9503 31.1641 10.3302 31.4468 9.64771C31.7295 8.96526 31.875 8.2338 31.875 7.49512C31.875 6.75643 31.7295 6.02498 31.4468 5.34252C31.1641 4.66007 30.7498 4.03997 30.2275 3.51764C29.7051 2.99531 29.0851 2.58098 28.4026 2.29829C27.7201 2.01561 26.9887 1.87012 26.25 1.87012C25.5113 1.87012 24.7799 2.01561 24.0974 2.29829C23.4149 2.58098 22.7949 2.99531 22.2725 3.51764C21.7502 4.03997 21.3359 4.66007 21.0532 5.34252C20.7705 6.02498 20.625 6.75643 20.625 7.49512ZM28.125 35.6201C28.125 38.6038 29.3103 41.4653 31.42 43.5751C33.5298 45.6849 36.3913 46.8701 39.375 46.8701C42.3587 46.8701 45.2202 45.6849 47.33 43.5751C49.4397 41.4653 50.625 38.6038 50.625 35.6201C50.625 32.6364 49.4397 29.775 47.33 27.6652C45.2202 25.5554 42.3587 24.3701 39.375 24.3701C36.3913 24.3701 33.5298 25.5554 31.42 27.6652C29.3103 29.775 28.125 32.6364 28.125 35.6201ZM61.875 14.9951C61.875 16.487 62.4676 17.9177 63.5225 18.9726C64.5774 20.0275 66.0082 20.6201 67.5 20.6201C68.9918 20.6201 70.4226 20.0275 71.4775 18.9726C72.5324 17.9177 73.125 16.487 73.125 14.9951C73.125 13.5033 72.5324 12.0725 71.4775 11.0176C70.4226 9.96275 68.9918 9.37012 67.5 9.37012C66.0082 9.37012 64.5774 9.96275 63.5225 11.0176C62.4676 12.0725 61.875 13.5033 61.875 14.9951ZM61.875 52.4951C61.875 55.6006 64.3945 58.1201 67.5 58.1201C70.6055 58.1201 73.125 55.6006 73.125 52.4951C73.125 49.3896 70.6055 46.8701 67.5 46.8701C65.7891 46.8701 64.2539 47.6318 63.2227 48.8389L63.293 48.874L62.332 50.4795L62.2617 50.4326C62.0156 51.0654 61.875 51.7568 61.875 52.4834V52.4951Z" fill="#E84DB5"/>
<path d="M26.25 1.87012C26.9887 1.87012 27.7201 2.01561 28.4026 2.29829C29.0851 2.58098 29.7051 2.99531 30.2275 3.51764C30.7498 4.03997 31.1641 4.66007 31.4468 5.34252C31.7295 6.02498 31.875 6.75643 31.875 7.49512C31.875 8.2338 31.7295 8.96525 31.4468 9.64771C31.1641 10.3302 30.7498 10.9503 30.2275 11.4726C29.7051 11.9949 29.0851 12.4093 28.4026 12.6919C27.7201 12.9746 26.9887 13.1201 26.25 13.1201C25.5113 13.1201 24.7799 12.9746 24.0974 12.6919C23.4149 12.4093 22.7949 11.9949 22.2725 11.4726C21.7502 10.9503 21.3359 10.3302 21.0532 9.64771C20.7705 8.96525 20.625 8.2338 20.625 7.49512C20.625 6.75643 20.7705 6.02498 21.0532 5.34252C21.3359 4.66007 21.7502 4.03997 22.2725 3.51764C22.7949 2.99531 23.4149 2.58098 24.0974 2.29829C24.7799 2.01561 25.5113 1.87012 26.25 1.87012ZM26.25 14.9951C27.1055 14.9951 27.9375 14.8545 28.6992 14.585L33.0586 24.1123C29.2617 26.1982 26.6016 30.1123 26.2852 34.6826H14.9414C14.4844 30.9795 11.3203 28.1201 7.5 28.1201C3.36328 28.1201 0 31.4834 0 35.6201C0 39.7568 3.36328 43.1201 7.5 43.1201C11.3203 43.1201 14.4844 40.2607 14.9414 36.5576H26.2852C26.7656 43.3662 32.4492 48.7451 39.375 48.7451C43.8164 48.7451 47.7422 46.542 50.1211 43.1553L60.6328 49.46C60.2227 50.3857 60 51.4053 60 52.4834C60 56.6201 63.3633 59.9834 67.5 59.9834C71.6367 59.9834 75 56.6201 75 52.4834C75 48.3467 71.6367 44.9834 67.5 44.9834C65.1094 44.9834 62.9766 46.1084 61.6055 47.8545L51.0938 41.5498C51.9961 39.7686 52.5117 37.7529 52.5117 35.6201C52.5117 33.0889 51.7969 30.7334 50.5547 28.7295L62.2266 20.3271C63.5859 21.6631 65.4492 22.4951 67.5 22.4951C71.6367 22.4951 75 19.1318 75 14.9951C75 10.8584 71.6367 7.49512 67.5 7.49512C63.3633 7.49512 60 10.8584 60 14.9951C60 16.4014 60.3867 17.7256 61.0664 18.8506L49.4531 27.2061C47.0508 24.3232 43.4297 22.4951 39.375 22.4951C37.7578 22.4951 36.1992 22.7881 34.7695 23.3271L30.3867 13.7529C32.4141 12.417 33.75 10.1084 33.75 7.49512C33.75 3.3584 30.3867 -0.00488281 26.25 -0.00488281C22.1133 -0.00488281 18.75 3.3584 18.75 7.49512C18.75 11.6318 22.1133 14.9951 26.25 14.9951ZM7.5 41.2451C6.00816 41.2451 4.57742 40.6525 3.52252 39.5976C2.46763 38.5427 1.875 37.112 1.875 35.6201C1.875 34.1283 2.46763 32.6975 3.52252 31.6426C4.57742 30.5878 6.00816 29.9951 7.5 29.9951C8.99184 29.9951 10.4226 30.5878 11.4775 31.6426C12.5324 32.6975 13.125 34.1283 13.125 35.6201C13.125 37.112 12.5324 38.5427 11.4775 39.5976C10.4226 40.6525 8.99184 41.2451 7.5 41.2451ZM61.875 52.4951C61.875 51.7686 62.0156 51.0771 62.2617 50.4443L62.332 50.4912L63.293 48.8857L63.2227 48.8506C64.2539 47.6436 65.7891 46.8818 67.5 46.8818C70.6055 46.8818 73.125 49.4014 73.125 52.5068C73.125 55.6123 70.6055 58.1318 67.5 58.1318C64.3945 58.1318 61.875 55.6123 61.875 52.5068V52.4951ZM67.5 9.37012C68.9918 9.37012 70.4226 9.96275 71.4775 11.0176C72.5324 12.0725 73.125 13.5033 73.125 14.9951C73.125 16.487 72.5324 17.9177 71.4775 18.9726C70.4226 20.0275 68.9918 20.6201 67.5 20.6201C66.0082 20.6201 64.5774 20.0275 63.5225 18.9726C62.4676 17.9177 61.875 16.487 61.875 14.9951C61.875 13.5033 62.4676 12.0725 63.5225 11.0176C64.5774 9.96275 66.0082 9.37012 67.5 9.37012ZM39.375 24.3701C40.8524 24.3701 42.3153 24.6611 43.6802 25.2265C45.0451 25.7918 46.2853 26.6205 47.33 27.6652C48.3746 28.7098 49.2033 29.95 49.7686 31.3149C50.334 32.6798 50.625 34.1427 50.625 35.6201C50.625 37.0975 50.334 38.5604 49.7686 39.9253C49.2033 41.2902 48.3746 42.5304 47.33 43.5751C46.2853 44.6197 45.0451 45.4484 43.6802 46.0138C42.3153 46.5791 40.8524 46.8701 39.375 46.8701C37.8976 46.8701 36.4347 46.5791 35.0698 46.0138C33.7049 45.4484 32.4647 44.6197 31.42 43.5751C30.3754 42.5304 29.5467 41.2902 28.9814 39.9253C28.416 38.5604 28.125 37.0975 28.125 35.6201C28.125 34.1427 28.416 32.6798 28.9814 31.3149C29.5467 29.95 30.3754 28.7098 31.42 27.6652C32.4647 26.6205 33.7049 25.7918 35.0698 25.2265C36.4347 24.6611 37.8976 24.3701 39.375 24.3701Z" fill="#E84DB5"/>
</g>
<defs>
<clipPath id="clip0_36_44611">
<rect width="75" height="60" fill="white" transform="translate(0 -0.00488281)"/>
</clipPath>
</defs>
</svg>
