<svg width="64" height="60" viewBox="0 0 64 60" fill="none" xmlns="http://www.w3.org/2000/svg">
<path opacity="0.4" d="M4 8V40C4 42.2125 5.7875 44 8 44H56C58.2125 44 60 42.2125 60 40V8C60 5.7875 58.2125 4 56 4H8C5.7875 4 4 5.7875 4 8ZM16.5875 22.5875L24.5875 14.5875C25.3625 13.8125 26.6375 13.8125 27.4125 14.5875C28.1875 15.3625 28.1875 16.6375 27.4125 17.4125L20.825 24L27.4125 30.5875C28.1875 31.3625 28.1875 32.6375 27.4125 33.4125C26.6375 34.1875 25.3625 34.1875 24.5875 33.4125L16.5875 25.4125C15.8125 24.6375 15.8125 23.3625 16.5875 22.5875ZM25.3625 56H38.6375L37.3 48H26.6875L25.35 56H25.3625ZM36.5875 14.5875C37.3625 13.8125 38.6375 13.8125 39.4125 14.5875L47.4125 22.5875C48.1875 23.3625 48.1875 24.6375 47.4125 25.4125L39.4125 33.4125C38.6375 34.1875 37.3625 34.1875 36.5875 33.4125C35.8125 32.6375 35.8125 31.3625 36.5875 30.5875L43.175 24L36.5875 17.4125C35.8125 16.6375 35.8125 15.3625 36.5875 14.5875Z" fill="#E84DB5"/>
<path d="M56 4H8C5.7875 4 4 5.7875 4 8V40C4 42.2125 5.7875 44 8 44H56C58.2125 44 60 42.2125 60 40V8C60 5.7875 58.2125 4 56 4ZM8 0H56C60.4125 0 64 3.5875 64 8V40C64 44.4125 60.4125 48 56 48H41.3625L42.7 56H50C51.1 56 52 56.9 52 58C52 59.1 51.1 60 50 60H14C12.9 60 12 59.1 12 58C12 56.9 12.9 56 14 56H21.3L22.6375 48H8C3.5875 48 0 44.4125 0 40V8C0 3.5875 3.5875 0 8 0ZM26.7 48L25.3625 56H38.6375L37.3 48H26.6875H26.7ZM27.425 17.4125L20.8375 24L27.425 30.5875C28.2 31.3625 28.2 32.6375 27.425 33.4125C26.65 34.1875 25.375 34.1875 24.6 33.4125L16.6 25.4125C15.825 24.6375 15.825 23.3625 16.6 22.5875L24.6 14.5875C25.375 13.8125 26.65 13.8125 27.425 14.5875C28.2 15.3625 28.2 16.6375 27.425 17.4125ZM39.425 14.5875L47.425 22.5875C48.2 23.3625 48.2 24.6375 47.425 25.4125L39.425 33.4125C38.65 34.1875 37.375 34.1875 36.6 33.4125C35.825 32.6375 35.825 31.3625 36.6 30.5875L43.1875 24L36.6 17.4125C35.825 16.6375 35.825 15.3625 36.6 14.5875C37.375 13.8125 38.65 13.8125 39.425 14.5875Z" fill="#E84DB5"/>
</svg>
