<svg width="60" height="60" viewBox="0 0 60 60" fill="none" xmlns="http://www.w3.org/2000/svg">
<g clip-path="url(#clip0_36_44682)">
<path opacity="0.4" d="M3.94967 18.8672C3.51608 19.6289 3.6567 20.5898 4.30124 21.1875L9.35202 25.8516C9.58639 26.0625 9.69186 26.3789 9.64499 26.6953C9.4692 27.7617 9.37545 28.8633 9.37545 30C9.37545 31.1367 9.4692 32.2383 9.64499 33.3281C9.69186 33.6328 9.58639 33.9492 9.35202 34.1719L4.30124 38.8242C3.6567 39.4219 3.51608 40.3828 3.94967 41.1445L7.33639 46.9922C7.76998 47.7539 8.68405 48.1055 9.51608 47.8477L16.0786 45.8086C16.3833 45.7148 16.7114 45.7734 16.9458 45.9727C18.6567 47.3672 20.602 48.5039 22.6997 49.3008C22.9926 49.418 23.2153 49.6641 23.2856 49.9688L24.7973 56.6602C24.9848 57.5156 25.7465 58.125 26.6255 58.125H33.3755C34.2544 58.125 35.0161 57.5156 35.2036 56.6602L36.7153 49.9688C36.7856 49.6641 37.0083 49.4062 37.3012 49.3008C39.3989 48.5039 41.3442 47.3789 43.0551 45.9727C43.3012 45.7734 43.6294 45.7148 43.9223 45.8086L50.4848 47.8477C51.3169 48.1055 52.2309 47.7539 52.6645 46.9922L56.0512 41.1328C56.4848 40.3711 56.3442 39.4102 55.6997 38.8125L50.6489 34.1484C50.4145 33.9375 50.309 33.6211 50.3559 33.3047C50.5317 32.2266 50.6255 31.1133 50.6255 29.9766C50.6255 28.8398 50.5317 27.7383 50.3559 26.6484C50.309 26.3438 50.4145 26.0273 50.6489 25.8047L55.6997 21.1406C56.3442 20.543 56.4848 19.582 56.0512 18.8203L52.6645 13.0078C52.2309 12.2461 51.3169 11.8945 50.4848 12.1523L43.9223 14.1914C43.6176 14.2852 43.2895 14.2266 43.0551 14.0273C41.3442 12.6211 39.3989 11.4961 37.3012 10.6992C37.0083 10.582 36.7856 10.3359 36.7153 10.0312L35.2036 3.33984C35.0161 2.48438 34.2544 1.875 33.3755 1.875H26.6255C25.7465 1.875 24.9848 2.48438 24.7973 3.33984L23.2856 10.0312C23.2153 10.3359 22.9926 10.5938 22.6997 10.6992C20.602 11.4961 18.6567 12.6211 16.9458 14.0273C16.6997 14.2266 16.3715 14.2852 16.0786 14.1914L9.51608 12.1523C8.68405 11.8945 7.76998 12.2461 7.33639 13.0078L3.94967 18.8672ZM15.27 29.3438L19.9575 24.6562C20.3208 24.293 20.9184 24.293 21.2817 24.6562C21.645 25.0195 21.645 25.6172 21.2817 25.9805L17.2622 30L21.2817 34.0195C21.645 34.3828 21.645 34.9805 21.2817 35.3438C20.9184 35.707 20.3208 35.707 19.9575 35.3438L15.27 30.6562C14.9067 30.293 14.9067 29.6953 15.27 29.332V29.3438ZM27.1997 41.0977L30.9497 18.5977C31.0317 18.082 31.5122 17.7422 32.0278 17.8242C32.5434 17.9062 32.8833 18.3867 32.8012 18.9023L29.0512 41.4023C28.9692 41.918 28.4887 42.2578 27.9731 42.1758C27.4575 42.0938 27.1176 41.6133 27.1997 41.0977ZM38.7075 24.6562C39.0708 24.293 39.6684 24.293 40.0317 24.6562L44.7192 29.3438C45.0825 29.707 45.0825 30.3047 44.7192 30.668L40.0317 35.3555C39.6684 35.7188 39.0708 35.7188 38.7075 35.3555C38.3442 34.9922 38.3442 34.3945 38.7075 34.0312L42.7387 30L38.7192 25.9805C38.3559 25.6172 38.3559 25.0195 38.7192 24.6562H38.7075Z" fill="#E84DB5"/>
<path d="M24.797 3.33984C24.9845 2.48438 25.7463 1.875 26.6252 1.875H33.3752C34.2541 1.875 35.0158 2.48438 35.2033 3.33984L36.715 10.0312C36.7853 10.3359 37.008 10.5938 37.3009 10.6992C39.3986 11.4961 41.3439 12.6211 43.0549 14.0273C43.3009 14.2266 43.6291 14.2852 43.922 14.1914L50.4845 12.1523C51.3166 11.8945 52.2306 12.2461 52.6642 13.0078L56.0509 18.8672C56.4845 19.6289 56.3439 20.5898 55.6994 21.1875L50.6486 25.8516C50.4142 26.0625 50.3088 26.3789 50.3556 26.6953C50.5314 27.7734 50.6252 28.8867 50.6252 30.0234C50.6252 31.1602 50.5314 32.2617 50.3556 33.3516C50.3088 33.6562 50.4142 33.9727 50.6486 34.1953L55.6994 38.8594C56.3439 39.457 56.4845 40.418 56.0509 41.1797L52.6642 46.9922C52.2306 47.7539 51.3166 48.1055 50.4845 47.8477L43.922 45.8086C43.6174 45.7148 43.2892 45.7734 43.0549 45.9727C41.3439 47.3672 39.3986 48.5039 37.3009 49.3008C37.008 49.418 36.7853 49.6641 36.715 49.9688L35.2033 56.6602C35.0158 57.5156 34.2541 58.125 33.3752 58.125H26.6252C25.7463 58.125 24.9845 57.5156 24.797 56.6602L23.2853 49.9688C23.215 49.6641 22.9923 49.4062 22.6994 49.3008C20.6017 48.5039 18.6564 47.3789 16.9455 45.9727C16.6994 45.7734 16.3713 45.7148 16.0783 45.8086L9.51579 47.8477C8.68376 48.1055 7.76969 47.7539 7.3361 46.9922L3.94938 41.1328C3.51579 40.3711 3.65641 39.4102 4.30094 38.8125L9.35173 34.1484C9.5861 33.9375 9.69157 33.6211 9.64469 33.3047C9.46891 32.2383 9.37516 31.1367 9.37516 30C9.37516 28.8633 9.46891 27.7617 9.64469 26.6719C9.69157 26.3672 9.5861 26.0508 9.35173 25.8281L4.30094 21.1758C3.65641 20.5781 3.51579 19.6172 3.94938 18.8555L7.3361 13.0078C7.76969 12.2461 8.68376 11.8945 9.51579 12.1523L16.0783 14.1914C16.383 14.2852 16.7111 14.2266 16.9455 14.0273C18.6564 12.6211 20.6017 11.4961 22.6994 10.6992C22.9923 10.582 23.215 10.3359 23.2853 10.0312L24.797 3.33984ZM26.6252 0C24.8673 0 23.3556 1.21875 22.9689 2.92969L21.5627 9.14062C19.6056 9.9375 17.7892 10.9922 16.1603 12.2695L10.0666 10.3711C8.39079 9.84375 6.5861 10.5586 5.70719 12.0703L2.33219 17.9297C1.45329 19.4531 1.74626 21.375 3.03532 22.5586L7.7111 26.8828C7.57048 27.9023 7.50016 28.9453 7.50016 30C7.50016 31.0547 7.57048 32.0977 7.7111 33.1172L3.03532 37.4414C1.74626 38.625 1.45329 40.5586 2.33219 42.0703L5.70719 47.9297C6.5861 49.4531 8.39079 50.1562 10.0666 49.6406L16.1486 47.7422C17.7892 49.0195 19.6056 50.0742 21.5509 50.8711L22.9572 57.082C23.3439 58.793 24.8673 60.0117 26.6134 60.0117H33.3634C35.1213 60.0117 36.633 58.793 37.0197 57.082L38.4259 50.8711C40.383 50.0859 42.1994 49.0195 43.8283 47.7422L49.9103 49.6406C51.5861 50.1562 53.3908 49.4531 54.2697 47.9297L57.6681 42.0703C58.547 40.5469 58.2541 38.625 56.965 37.4414L52.2892 33.1172C52.4299 32.0977 52.5002 31.0547 52.5002 30C52.5002 28.9453 52.4299 27.9023 52.2892 26.8828L56.965 22.5586C58.2541 21.375 58.547 19.4414 57.6681 17.9297L54.2931 12.0703C53.4142 10.5469 51.6095 9.84375 49.9338 10.3594L43.8517 12.2578C42.2111 10.9805 40.3947 9.92578 38.4377 9.14062L37.0314 2.92969C36.6447 1.21875 35.1213 0 33.3752 0H26.6252ZM32.8009 18.9023C32.883 18.3867 32.5431 17.9062 32.0275 17.8242C31.5119 17.7422 31.0314 18.082 30.9494 18.5977L27.1994 41.0977C27.1173 41.6133 27.4572 42.0938 27.9728 42.1758C28.4884 42.2578 28.9689 41.918 29.0509 41.4023L32.8009 18.9023ZM21.2931 25.9688C21.6564 25.6055 21.6564 25.0078 21.2931 24.6445C20.9298 24.2812 20.3322 24.2812 19.9689 24.6445L15.2814 29.332C14.9181 29.6953 14.9181 30.293 15.2814 30.6562L19.9689 35.3438C20.3322 35.707 20.9298 35.707 21.2931 35.3438C21.6564 34.9805 21.6564 34.3828 21.2931 34.0195L17.2619 30L21.2814 25.9805L21.2931 25.9688ZM40.0431 24.6445C39.6799 24.2812 39.0822 24.2812 38.7189 24.6445C38.3556 25.0078 38.3556 25.6055 38.7189 25.9688L42.7384 30L38.7189 34.0195C38.3556 34.3828 38.3556 34.9805 38.7189 35.3438C39.0822 35.707 39.6799 35.707 40.0431 35.3438L44.7306 30.6562C45.0939 30.293 45.0939 29.6953 44.7306 29.332L40.0431 24.6445Z" fill="#E84DB5"/>
</g>
<defs>
<clipPath id="clip0_36_44682">
<rect width="60" height="60" fill="white"/>
</clipPath>
</defs>
</svg>
