<svg width="75" height="60" viewBox="0 0 75 60" fill="none" xmlns="http://www.w3.org/2000/svg">
<path opacity="0.4" d="M11.25 7.5C11.25 5.42578 12.9258 3.75 15 3.75H60C62.0742 3.75 63.75 5.42578 63.75 7.5V24.375C56.4961 24.375 50.625 30.2461 50.625 37.5C50.625 30.2461 44.7539 24.375 37.5 24.375C30.2461 24.375 24.375 30.2461 24.375 37.5C24.375 30.2461 18.5039 24.375 11.25 24.375V7.5Z" fill="#E84DB5"/>
<path d="M60 3.75H15C12.9258 3.75 11.25 5.42578 11.25 7.5V24.375C9.94922 24.375 8.68359 24.5625 7.5 24.9141V7.5C7.5 3.36328 10.8633 0 15 0H60C64.1367 0 67.5 3.36328 67.5 7.5V24.9141C66.3164 24.5625 65.0508 24.375 63.75 24.375V7.5C63.75 5.42578 62.0742 3.75 60 3.75ZM11.25 41.25C13.3242 41.25 15 39.5742 15 37.5C15 35.4258 13.3242 33.75 11.25 33.75C9.17578 33.75 7.5 35.4258 7.5 37.5C7.5 39.5742 9.17578 41.25 11.25 41.25ZM11.25 30C15.3867 30 18.75 33.3633 18.75 37.5C18.75 41.6367 15.3867 45 11.25 45C7.11328 45 3.75 41.6367 3.75 37.5C3.75 33.3633 7.11328 30 11.25 30ZM37.5 41.25C39.5742 41.25 41.25 39.5742 41.25 37.5C41.25 35.4258 39.5742 33.75 37.5 33.75C35.4258 33.75 33.75 35.4258 33.75 37.5C33.75 39.5742 35.4258 41.25 37.5 41.25ZM37.5 30C41.6367 30 45 33.3633 45 37.5C45 41.6367 41.6367 45 37.5 45C33.3633 45 30 41.6367 30 37.5C30 33.3633 33.3633 30 37.5 30ZM67.5 37.5C67.5 35.4258 65.8242 33.75 63.75 33.75C61.6758 33.75 60 35.4258 60 37.5C60 39.5742 61.6758 41.25 63.75 41.25C65.8242 41.25 67.5 39.5742 67.5 37.5ZM56.25 37.5C56.25 33.3633 59.6133 30 63.75 30C67.8867 30 71.25 33.3633 71.25 37.5C71.25 41.6367 67.8867 45 63.75 45C59.6133 45 56.25 41.6367 56.25 37.5ZM3.75 56.25V58.125C3.75 59.1562 2.90625 60 1.875 60C0.84375 60 0 59.1562 0 58.125V56.25C0 52.1133 3.36328 48.75 7.5 48.75H15C19.1367 48.75 22.5 52.1133 22.5 56.25V58.125C22.5 59.1562 21.6562 60 20.625 60C19.5938 60 18.75 59.1562 18.75 58.125V56.25C18.75 54.1758 17.0742 52.5 15 52.5H7.5C5.42578 52.5 3.75 54.1758 3.75 56.25ZM33.75 52.5C31.6758 52.5 30 54.1758 30 56.25V58.125C30 59.1562 29.1562 60 28.125 60C27.0938 60 26.25 59.1562 26.25 58.125V56.25C26.25 52.1133 29.6133 48.75 33.75 48.75H41.25C45.3867 48.75 48.75 52.1133 48.75 56.25V58.125C48.75 59.1562 47.9062 60 46.875 60C45.8438 60 45 59.1562 45 58.125V56.25C45 54.1758 43.3242 52.5 41.25 52.5H33.75ZM56.25 56.25V58.125C56.25 59.1562 55.4062 60 54.375 60C53.3438 60 52.5 59.1562 52.5 58.125V56.25C52.5 52.1133 55.8633 48.75 60 48.75H67.5C71.6367 48.75 75 52.1133 75 56.25V58.125C75 59.1562 74.1562 60 73.125 60C72.0938 60 71.25 59.1562 71.25 58.125V56.25C71.25 54.1758 69.5742 52.5 67.5 52.5H60C57.9258 52.5 56.25 54.1758 56.25 56.25Z" fill="#E84DB5"/>
</svg>
