<svg width="70" height="60" viewBox="0 0 70 60" fill="none" xmlns="http://www.w3.org/2000/svg">
<path opacity="0.4" d="M2.13574 23.2123C2.55921 23.1639 2.97059 22.9825 3.29727 22.6558L14.9125 11.0405L15.3844 10.5687C17.1993 8.75378 19.6675 7.73745 22.2325 7.73745H30.1696L17.417 20.49C15.9046 22.0024 15.9046 24.4586 17.417 25.971L17.5138 26.0678C22.8012 31.3551 31.3916 31.3551 36.679 26.0678L40.6475 22.0871L53.1581 34.6098C55.4207 36.8724 55.4207 40.5505 53.1581 42.8252L50.8109 45.1724L46.8544 41.216C46.1043 40.4658 44.8702 40.4658 44.12 41.216C43.3699 41.9661 43.3699 43.2002 44.12 43.9504L47.9434 47.7858C45.6566 49.4313 42.8859 50.3267 40.0305 50.3267H38.5302L33.2912 45.0877C32.5411 44.3376 31.3069 44.3376 30.5568 45.0877C29.8066 45.8379 29.8066 47.072 30.5568 47.8221L33.0613 50.3267H29.6252C26.0317 50.3267 22.5834 48.899 20.0426 46.3581L18.7722 45.0877C18.022 44.3376 16.7879 44.3376 16.0377 45.0877L5.53562 55.5898L2.13574 23.2123ZM20.1636 23.2244L35.6506 7.73745H46.8181C48.7298 7.73745 50.5931 8.30611 52.1902 9.35874L55.0698 11.2825C55.8321 11.7907 56.8605 11.6939 57.5138 11.0405L64.2047 4.34967L67.4957 29.0442C67.0843 29.0926 66.6972 29.2862 66.3826 29.5886L58.6391 37.3321C58.3487 35.3237 57.4412 33.3999 55.9046 31.8512L42.0147 17.9855C41.2646 17.2353 40.0305 17.2353 39.2803 17.9855L33.9446 23.3212C30.1696 27.0962 24.0353 27.0962 20.2604 23.3212L20.1636 23.2244Z" fill="#E84DB5"/>
<path d="M65.245 3.29704C65.9952 2.54689 65.9952 1.31276 65.245 0.562613C64.4949 -0.187538 63.2607 -0.187538 62.5106 0.562613L55.8923 7.18088L54.3315 6.14035C52.1053 4.65215 49.4797 3.8657 46.8058 3.8657H22.2323C18.6388 3.8657 15.1906 5.29341 12.6497 7.83424L12.1779 8.30611L0.562613 19.9214C-0.187538 20.6715 -0.187538 21.9056 0.562613 22.6558C1.31276 23.4059 2.54688 23.4059 3.29704 22.6558L14.9123 11.0405L15.3841 10.5687C17.199 8.75378 19.6673 7.73745 22.2323 7.73745H30.1694L17.4168 20.49C15.9044 22.0024 15.9044 24.4586 17.4168 25.971L17.5136 26.0678C22.801 31.3551 31.3914 31.3551 36.6788 26.0678L40.6473 22.0871L53.1579 34.6098C55.4204 36.8724 55.4204 40.5505 53.1579 42.8252L50.8106 45.1724L46.8542 41.216C46.1041 40.4658 44.8699 40.4658 44.1198 41.216C43.3696 41.9661 43.3696 43.2002 44.1198 43.9504L47.9431 47.7858C45.6564 49.4313 42.8857 50.3267 40.0303 50.3267H38.5299L33.291 45.0877C32.5408 44.3376 31.3067 44.3376 30.5566 45.0877C29.8064 45.8379 29.8064 47.072 30.5566 47.8221L33.0611 50.3267H29.6249C26.0315 50.3267 22.5832 48.899 20.0423 46.3581L18.7719 45.0877C18.0218 44.3376 16.7877 44.3376 16.0375 45.0877L4.42226 56.703C3.67211 57.4531 3.67211 58.6872 4.42226 59.4374C5.17241 60.1875 6.40653 60.1875 7.15668 59.4374L17.4168 49.1894C20.6715 52.3956 25.0635 54.1984 29.637 54.1984H40.0424C44.6642 54.1984 49.0926 52.3593 52.3593 49.0926L55.9044 45.5475C56.0496 45.4023 56.1948 45.245 56.3279 45.0877C56.4005 45.0272 56.4731 44.9667 56.5336 44.9062L69.1168 32.3231C69.8669 31.5729 69.8669 30.3388 69.1168 29.5886C68.3666 28.8385 67.1325 28.8385 66.3823 29.5886L58.6388 37.3321C58.3485 35.3237 57.441 33.3999 55.9044 31.8512L42.0145 17.9855C41.2644 17.2353 40.0303 17.2353 39.2801 17.9855L33.9443 23.3212C30.1694 27.0962 24.0351 27.0962 20.2601 23.3212L20.1633 23.2244L35.6503 7.73745H46.8179C48.7296 7.73745 50.5929 8.30611 52.19 9.35874L55.0696 11.2825C55.8318 11.7907 56.8603 11.6939 57.5136 11.0405L65.2571 3.29704H65.245Z" fill="#E84DB5"/>
</svg>
