<svg width="58" height="29" viewBox="0 0 58 29" fill="none" xmlns="http://www.w3.org/2000/svg">
<path d="M0 12.8053C0 5.73656 5.73656 0 12.8053 0C16.3397 0 19.7109 1.45906 22.1306 4.03281L29 11.3281L35.8694 4.03281C38.2891 1.45906 41.6603 0 45.1947 0C52.2634 0 58 5.73656 58 12.8053V16.1947C58 23.2634 52.2634 29 45.1947 29C41.6603 29 38.2891 27.5409 35.8694 24.9672L29 17.6719L22.1306 24.9672C19.7109 27.5409 16.3397 29 12.8053 29C5.73656 29 0 23.2634 0 16.1947V12.8053ZM26.0094 14.5L18.9587 7.01437C17.3638 5.31969 15.1344 4.35 12.7963 4.35C8.12906 4.35 4.34094 8.13812 4.34094 12.8053V16.1947C4.34094 20.8619 8.12906 24.65 12.7963 24.65C15.1253 24.65 17.3547 23.6894 18.9587 21.9856L26.0094 14.5ZM31.9816 14.5L39.0322 21.9856C40.6272 23.6803 42.8566 24.65 45.1947 24.65C49.8619 24.65 53.65 20.8619 53.65 16.1947V12.8053C53.65 8.13812 49.8619 4.35 45.1947 4.35C42.8656 4.35 40.6363 5.31062 39.0322 7.01437L31.9906 14.5H31.9816Z" fill="white"/>
</svg>
