<svg width="25" height="20" viewBox="0 0 25 20" fill="none" xmlns="http://www.w3.org/2000/svg">
<path d="M20 3.125H5C4.65625 3.125 4.375 3.40625 4.375 3.75V12.5H2.5V3.75C2.5 2.37109 3.62109 1.25 5 1.25H20C21.3789 1.25 22.5 2.37109 22.5 3.75V12.5H20.625V3.75C20.625 3.40625 20.3438 3.125 20 3.125ZM3.75 16.875H21.25C22.0664 16.875 22.7617 16.3516 23.0195 15.625H1.98047C2.23828 16.3516 2.93359 16.875 3.75 16.875ZM0 15C0 14.3086 0.558594 13.75 1.25 13.75H23.75C24.4414 13.75 25 14.3086 25 15C25 17.0703 23.3203 18.75 21.25 18.75H3.75C1.67969 18.75 0 17.0703 0 15Z" fill="#24FFFB"/>
</svg>
