<svg width="45" height="60" viewBox="0 0 45 60" fill="none" xmlns="http://www.w3.org/2000/svg">
<g clip-path="url(#clip0_36_44625)">
<path opacity="0.4" d="M3.75 20.6201C3.75 10.2607 12.1406 1.87012 22.5 1.87012C32.8594 1.87012 41.25 10.2607 41.25 20.6201C41.25 24.5928 40.0195 28.2725 37.9102 31.3076C37.3828 32.0693 36.7969 32.8662 36.2109 33.6748C34.7461 35.6904 33.1758 37.835 31.957 40.0498C31.0898 41.6318 30.5977 43.3076 30.3164 44.9951H14.6836C14.4023 43.3076 13.9102 41.6318 13.043 40.0498C11.8242 37.8232 10.2656 35.6787 8.78906 33.6748C8.20313 32.8662 7.61719 32.0693 7.08984 31.3076C4.98047 28.2725 3.75 24.5928 3.75 20.6201ZM9.375 19.6826C9.375 20.1982 9.79688 20.6201 10.3125 20.6201C10.8281 20.6201 11.25 20.1982 11.25 19.6826C11.25 13.9873 15.8672 9.37012 21.5625 9.37012C22.0781 9.37012 22.5 8.94824 22.5 8.43262C22.5 7.91699 22.0781 7.49512 21.5625 7.49512C14.8359 7.49512 9.375 12.9561 9.375 19.6826ZM15 50.6201H30C30 54.7568 26.6367 58.1201 22.5 58.1201C18.3633 58.1201 15 54.7568 15 50.6201Z" fill="#E84DB5"/>
<path d="M37.9102 31.3076C40.0195 28.2725 41.25 24.5928 41.25 20.6201C41.25 10.2607 32.8594 1.87012 22.5 1.87012C12.1406 1.87012 3.75 10.2607 3.75 20.6201C3.75 24.5928 4.98047 28.2725 7.08984 31.3076C7.61719 32.0693 8.20312 32.8662 8.78906 33.6748C10.2539 35.6904 11.8242 37.835 13.043 40.0498C13.9102 41.6318 14.4023 43.3076 14.6836 44.9951H12.7734C12.5156 43.5889 12.082 42.2178 11.3906 40.9521C10.2305 38.8428 8.78906 36.8623 7.34766 34.8818C6.73828 34.0498 6.12891 33.2178 5.54297 32.374C3.23437 29.0459 1.875 24.9912 1.875 20.6201C1.875 9.22949 11.1094 -0.00488281 22.5 -0.00488281C33.8906 -0.00488281 43.125 9.22949 43.125 20.6201C43.125 24.9912 41.7656 29.0459 39.4453 32.374C38.8594 33.2178 38.25 34.0498 37.6406 34.8818C36.1992 36.8506 34.7578 38.8311 33.5977 40.9521C32.9062 42.2178 32.4727 43.5889 32.2148 44.9951H30.3164C30.5977 43.3076 31.0898 41.6318 31.957 40.0498C33.1758 37.8232 34.7344 35.6787 36.2109 33.6748C36.7969 32.8662 37.3828 32.0693 37.9102 31.3076ZM21.5625 9.37012C15.8672 9.37012 11.25 13.9873 11.25 19.6826C11.25 20.1982 10.8281 20.6201 10.3125 20.6201C9.79687 20.6201 9.375 20.1982 9.375 19.6826C9.375 12.9561 14.8359 7.49512 21.5625 7.49512C22.0781 7.49512 22.5 7.91699 22.5 8.43262C22.5 8.94824 22.0781 9.37012 21.5625 9.37012ZM15 50.6201C15 54.7568 18.3633 58.1201 22.5 58.1201C26.6367 58.1201 30 54.7568 30 50.6201H15ZM13.125 50.6201V49.999C13.125 49.3076 13.6875 48.7451 14.3789 48.7451H30.6328C31.3242 48.7451 31.8867 49.3076 31.8867 49.999V50.6201C31.8867 55.7998 27.6914 59.9951 22.5117 59.9951C17.332 59.9951 13.1367 55.7998 13.1367 50.6201H13.125Z" fill="#E84DB5"/>
</g>
<defs>
<clipPath id="clip0_36_44625">
<rect width="45" height="60" fill="white" transform="translate(0 -0.00488281)"/>
</clipPath>
</defs>
</svg>
