<svg width="24" height="32" viewBox="0 0 24 32" fill="none" xmlns="http://www.w3.org/2000/svg">
    <g clip-path="url(#clip0_200_106)">
        <path opacity="0.4" d="M2 10.9951C2 5.47012 6.475 0.995117 12 0.995117C17.525 0.995117 22 5.47012 22 10.9951C22 13.1139 21.3438 15.0764 20.2188 16.6951C19.9375 17.1014 19.625 17.5264 19.3125 17.9576C18.5313 19.0326 17.6938 20.1764 17.0438 21.3576C16.5813 22.2014 16.3188 23.0951 16.1688 23.9951H7.83125C7.68125 23.0951 7.41875 22.2014 6.95625 21.3576C6.30625 20.1701 5.475 19.0264 4.6875 17.9576C4.375 17.5264 4.0625 17.1014 3.78125 16.6951C2.65625 15.0764 2 13.1139 2 10.9951ZM5 10.4951C5 10.7701 5.225 10.9951 5.5 10.9951C5.775 10.9951 6 10.7701 6 10.4951C6 7.45762 8.4625 4.99512 11.5 4.99512C11.775 4.99512 12 4.77012 12 4.49512C12 4.22012 11.775 3.99512 11.5 3.99512C7.9125 3.99512 5 6.90762 5 10.4951ZM8 26.9951H16C16 29.2014 14.2063 30.9951 12 30.9951C9.79375 30.9951 8 29.2014 8 26.9951Z" fill="#E84DB5"/>
        <path d="M20.2187 16.6951C21.3437 15.0764 22 13.1139 22 10.9951C22 5.47012 17.525 0.995117 12 0.995117C6.475 0.995117 2 5.47012 2 10.9951C2 13.1139 2.65625 15.0764 3.78125 16.6951C4.0625 17.1014 4.375 17.5264 4.6875 17.9576C5.46875 19.0326 6.30625 20.1764 6.95625 21.3576C7.41875 22.2014 7.68125 23.0951 7.83125 23.9951H6.8125C6.675 23.2451 6.44375 22.5139 6.075 21.8389C5.45625 20.7139 4.6875 19.6576 3.91875 18.6014C3.59375 18.1576 3.26875 17.7139 2.95625 17.2639C1.725 15.4889 1 13.3264 1 10.9951C1 4.92012 5.925 -0.00488281 12 -0.00488281C18.075 -0.00488281 23 4.92012 23 10.9951C23 13.3264 22.275 15.4889 21.0375 17.2639C20.725 17.7139 20.4 18.1576 20.075 18.6014C19.3062 19.6514 18.5375 20.7076 17.9187 21.8389C17.55 22.5139 17.3187 23.2451 17.1812 23.9951H16.1687C16.3187 23.0951 16.5812 22.2014 17.0437 21.3576C17.6937 20.1701 18.525 19.0264 19.3125 17.9576C19.625 17.5264 19.9375 17.1014 20.2187 16.6951ZM11.5 4.99512C8.4625 4.99512 6 7.45762 6 10.4951C6 10.7701 5.775 10.9951 5.5 10.9951C5.225 10.9951 5 10.7701 5 10.4951C5 6.90762 7.9125 3.99512 11.5 3.99512C11.775 3.99512 12 4.22012 12 4.49512C12 4.77012 11.775 4.99512 11.5 4.99512ZM8 26.9951C8 29.2014 9.79375 30.9951 12 30.9951C14.2062 30.9951 16 29.2014 16 26.9951H8ZM7 26.9951V26.6639C7 26.2951 7.3 25.9951 7.66875 25.9951H16.3375C16.7062 25.9951 17.0062 26.2951 17.0062 26.6639V26.9951C17.0062 29.7576 14.7687 31.9951 12.0062 31.9951C9.24375 31.9951 7.00625 29.7576 7.00625 26.9951H7Z" fill="#E84DB5"/>
    </g>
    <defs>
        <clipPath id="clip0_200_106">
            <rect width="24" height="32" fill="white" transform="translate(0 -0.00488281)"/>
        </clipPath>
    </defs>
</svg>