<svg width="59" height="60" viewBox="0 0 59 60" fill="none" xmlns="http://www.w3.org/2000/svg">
<path opacity="0.4" d="M6.87305 15.4396H34.2998L33.7959 21.5082C34.2033 21.401 34.6322 21.2938 35.061 21.1973C30.0217 22.3016 26.3548 24.6926 23.8137 27.2337C21.5514 29.496 19.9002 32.1658 18.8816 35.1894V53.1808H11.6121C10.7222 53.1808 9.97169 52.4946 9.90736 51.6047L6.87305 15.4396Z" fill="#E84DB5"/>
<path d="M24.9392 0C22.6126 0 20.5647 1.5654 19.9643 3.81701L17.777 12.0086H1.71551C0.77198 12.0086 0 12.7806 0 13.7241C0 14.6676 0.77198 15.4396 1.71551 15.4396H3.43102L6.46533 51.8942C6.69049 54.564 8.92066 56.6119 11.5904 56.6119H19.1923C18.9778 55.7434 18.8599 54.832 18.8599 53.8992V53.1808H11.5904C10.7005 53.1808 9.94996 52.4946 9.88563 51.6047L6.87277 15.4396H34.2995L33.7956 21.5082C34.8892 21.208 36.0579 20.9721 37.3016 20.8113L37.752 15.4396H39.4675C40.411 15.4396 41.183 14.6676 41.183 13.7241C41.183 12.7806 40.411 12.0086 39.4675 12.0086H21.3474L23.2988 4.70693C23.5025 3.9564 24.178 3.43102 24.9607 3.43102H29.1637C30.1072 3.43102 30.8792 2.65904 30.8792 1.71551C30.8792 0.77198 30.1072 0 29.1637 0H24.9392ZM27.4482 38.0415C27.4482 37.0229 27.609 36.3796 27.8449 35.9721C30.3753 31.5654 35.5647 29.0994 41.1723 29.0994C46.7798 29.0994 51.9693 31.5654 54.4996 35.9721C54.7355 36.3796 54.8964 37.0229 54.8964 38.0415V41.183H58.3274V38.0415C58.3274 37.366 58.2738 36.6905 58.1344 36.0365C58.0057 35.4146 57.7913 34.8249 57.4803 34.2673C50.9078 22.7949 31.4475 22.8056 24.8749 34.2673C24.5533 34.8249 24.3495 35.4146 24.2101 36.0365C24.0708 36.6905 24.0172 37.366 24.0172 38.0415V41.183H27.4482V38.0415ZM54.8964 53.8778C54.8964 55.3681 53.6848 56.569 52.2052 56.569H30.1501C28.6598 56.569 27.4589 55.3574 27.4589 53.8778V51.4761H24.0279V53.8778C24.0279 54.8642 24.2638 55.797 24.6712 56.6226C25.6791 58.6276 27.7484 60 30.1501 60H52.2052C54.6069 60 56.6762 58.6276 57.6841 56.6226C58.1022 55.797 58.3274 54.8642 58.3274 53.8778V51.4761H54.8964V53.8778ZM25.7327 44.6033C24.7891 44.6033 24.0172 45.3753 24.0172 46.3188C24.0172 47.2623 24.7891 48.0343 25.7327 48.0343H56.6119C57.5554 48.0343 58.3274 47.2623 58.3274 46.3188C58.3274 45.3753 57.5554 44.6033 56.6119 44.6033H25.7327ZM42.8878 32.5947C42.8878 31.6512 42.1158 30.8792 41.1723 30.8792C40.2287 30.8792 39.4568 31.6512 39.4568 32.5947C39.4568 33.5382 40.2287 34.3102 41.1723 34.3102C42.1158 34.3102 42.8878 33.5382 42.8878 32.5947ZM34.3102 37.7412C35.2538 37.7412 36.0257 36.9693 36.0257 36.0257C36.0257 35.0822 35.2538 34.3102 34.3102 34.3102C33.3667 34.3102 32.5947 35.0822 32.5947 36.0257C32.5947 36.9693 33.3667 37.7412 34.3102 37.7412ZM49.7498 36.0257C49.7498 35.0822 48.9778 34.3102 48.0343 34.3102C47.0908 34.3102 46.3188 35.0822 46.3188 36.0257C46.3188 36.9693 47.0908 37.7412 48.0343 37.7412C48.9778 37.7412 49.7498 36.9693 49.7498 36.0257Z" fill="#E84DB5"/>
</svg>
