<svg width="60" height="60" viewBox="0 0 60 60" fill="none" xmlns="http://www.w3.org/2000/svg">
<g clip-path="url(#clip0_36_44693)">
<path opacity="0.4" d="M16.875 18.75V41.25C16.875 42.2812 17.7188 43.125 18.75 43.125H41.25C42.2812 43.125 43.125 42.2812 43.125 41.25V18.75C43.125 17.7188 42.2812 16.875 41.25 16.875H18.75C17.7188 16.875 16.875 17.7188 16.875 18.75Z" fill="#E84DB5"/>
<path d="M19.6875 0.9375C19.6875 0.421875 19.2656 0 18.75 0C18.2344 0 17.8125 0.421875 17.8125 0.9375V7.5H15C10.8633 7.5 7.5 10.8633 7.5 15V17.8125H0.9375C0.421875 17.8125 0 18.2344 0 18.75C0 19.2656 0.421875 19.6875 0.9375 19.6875H7.5V29.0625H0.9375C0.421875 29.0625 0 29.4844 0 30C0 30.5156 0.421875 30.9375 0.9375 30.9375H7.5V40.3125H0.9375C0.421875 40.3125 0 40.7344 0 41.25C0 41.7656 0.421875 42.1875 0.9375 42.1875H7.5V45C7.5 49.1367 10.8633 52.5 15 52.5H17.8125V59.0625C17.8125 59.5781 18.2344 60 18.75 60C19.2656 60 19.6875 59.5781 19.6875 59.0625V52.5H29.0625V59.0625C29.0625 59.5781 29.4844 60 30 60C30.5156 60 30.9375 59.5781 30.9375 59.0625V52.5H40.3125V59.0625C40.3125 59.5781 40.7344 60 41.25 60C41.7656 60 42.1875 59.5781 42.1875 59.0625V52.5H45C49.1367 52.5 52.5 49.1367 52.5 45V42.1875H59.0625C59.5781 42.1875 60 41.7656 60 41.25C60 40.7344 59.5781 40.3125 59.0625 40.3125H52.5V30.9375H59.0625C59.5781 30.9375 60 30.5156 60 30C60 29.4844 59.5781 29.0625 59.0625 29.0625H52.5V19.6875H59.0625C59.5781 19.6875 60 19.2656 60 18.75C60 18.2344 59.5781 17.8125 59.0625 17.8125H52.5V15C52.5 10.8633 49.1367 7.5 45 7.5H42.1875V0.9375C42.1875 0.421875 41.7656 0 41.25 0C40.7344 0 40.3125 0.421875 40.3125 0.9375V7.5H30.9375V0.9375C30.9375 0.421875 30.5156 0 30 0C29.4844 0 29.0625 0.421875 29.0625 0.9375V7.5H19.6875V0.9375ZM30 9.375H41.25H45C48.1055 9.375 50.625 11.8945 50.625 15V18.75V30V41.25V45C50.625 48.1055 48.1055 50.625 45 50.625H41.25H30H18.75H15C11.8945 50.625 9.375 48.1055 9.375 45V41.25V30V18.75V15C9.375 11.8945 11.8945 9.375 15 9.375H18.75H30ZM43.125 18.75V41.25C43.125 42.2812 42.2812 43.125 41.25 43.125H18.75C17.7188 43.125 16.875 42.2812 16.875 41.25V18.75C16.875 17.7188 17.7188 16.875 18.75 16.875H41.25C42.2812 16.875 43.125 17.7188 43.125 18.75ZM18.75 15C16.6758 15 15 16.6758 15 18.75V41.25C15 43.3242 16.6758 45 18.75 45H41.25C43.3242 45 45 43.3242 45 41.25V18.75C45 16.6758 43.3242 15 41.25 15H18.75Z" fill="#E84DB5"/>
</g>
<defs>
<clipPath id="clip0_36_44693">
<rect width="60" height="60" fill="white"/>
</clipPath>
</defs>
</svg>
