<svg width="32" height="32" viewBox="0 0 32 32" fill="none" xmlns="http://www.w3.org/2000/svg">
    <g clip-path="url(#clip0_200_141)">
        <path opacity="0.4" d="M1.08276 26.9123L6.96167 25.1842C7.73276 24.9545 8.43823 24.5389 9.00698 23.9701L22.307 10.6701L17.325 5.68811L4.02495 18.9881C3.4562 19.5569 3.04058 20.2623 2.81089 21.0334L1.08276 26.9123Z" fill="#E84DB5"/>
        <path d="M21.6015 1.41157C22.2851 0.727979 23.3953 0.727979 24.0789 1.41157L26.5836 3.91626C27.2672 4.59985 27.2672 5.71001 26.5836 6.3936L22.925 10.0522L17.9429 5.07017L21.6015 1.41157ZM17.325 5.68813L22.307 10.6702L9.00701 23.9702C8.43826 24.5389 7.73279 24.9545 6.9617 25.1842L1.08279 26.9124L2.81092 21.0334C3.0406 20.2624 3.45623 19.5569 4.02498 18.9881L17.325 5.68813ZM24.6914 0.793604C23.6687 -0.229053 22.0062 -0.229053 20.9781 0.793604L3.40701 18.3702C2.73435 19.0428 2.24217 19.8741 1.9742 20.7874L0.0163844 27.4319C-0.0273656 27.585 0.0109157 27.7491 0.125759 27.8639C0.240603 27.9788 0.404666 28.017 0.557791 27.9733L7.20779 26.0155C8.12107 25.7475 8.95232 25.2553 9.62498 24.5827L27.2015 7.01157C28.2242 5.98892 28.2242 4.32642 27.2015 3.29829L24.6914 0.793604Z" fill="#E84DB5"/>
    </g>
    <defs>
        <clipPath id="clip0_200_141">
            <rect width="28" height="28" fill="white" transform="translate(0 -0.00488281)"/>
        </clipPath>
    </defs>
</svg>