<svg width="75" height="60" viewBox="0 0 75 60" fill="none" xmlns="http://www.w3.org/2000/svg">
<g clip-path="url(#clip0_36_44707)">
<path opacity="0.4" d="M14.0625 21.5156C14.0625 21.2344 14.0859 20.9648 14.1211 20.6953L14.2969 20.3672C15.4336 18.2109 17.6719 16.8633 20.0977 16.8633H29.4258L45 16.875C46.0312 16.875 46.875 17.7188 46.875 18.75C46.875 19.7812 46.0312 20.625 45 20.625H30.9375C29.9062 20.625 29.0625 21.4688 29.0625 22.5V29.0391C29.0625 38.1211 29.0625 47.1914 29.0625 56.25C29.0625 57.2812 28.2188 58.125 27.1875 58.125C26.1562 58.125 25.3125 57.2812 25.3125 56.25V42.1875C25.3125 40.6289 24.0586 39.375 22.5 39.375C20.9414 39.375 19.6875 40.6289 19.6875 42.1875V56.25C19.6875 57.2812 18.8438 58.125 17.8125 58.125C16.7812 58.125 15.9375 57.2812 15.9375 56.25V29.0625C15.9375 28.5469 15.5156 28.125 15 28.125C14.4844 28.125 14.0625 28.5469 14.0625 29.0625C14.0625 29.1445 14.0625 29.2266 14.0625 29.3086V21.5156ZM27.1875 6.5625C27.1875 7.8057 26.6936 8.99799 25.8146 9.87706C24.9355 10.7561 23.7432 11.25 22.5 11.25C21.2568 11.25 20.0645 10.7561 19.1854 9.87706C18.3064 8.99799 17.8125 7.8057 17.8125 6.5625C17.8125 5.3193 18.3064 4.12701 19.1854 3.24794C20.0645 2.36886 21.2568 1.875 22.5 1.875C23.7432 1.875 24.9355 2.36886 25.8146 3.24794C26.6936 4.12701 27.1875 5.3193 27.1875 6.5625ZM37.5 22.5H45C47.0742 22.5 48.75 20.8242 48.75 18.75C48.75 16.6758 47.0742 15 45 15H39.375V5.625C39.375 3.55078 41.0508 1.875 43.125 1.875H69.375C71.4492 1.875 73.125 3.55078 73.125 5.625V31.875C73.125 33.9492 71.4492 35.625 69.375 35.625H43.125C41.0508 35.625 39.375 33.9492 39.375 31.875V26.25H37.5C37.5 26.3789 37.5 26.5078 37.5 26.6367V22.5Z" fill="#E84DB5"/>
<path d="M17.8126 6.5625C17.8126 5.3193 18.3065 4.12701 19.1855 3.24794C20.0646 2.36886 21.2569 1.875 22.5001 1.875C23.7433 1.875 24.9356 2.36886 25.8147 3.24794C26.6937 4.12701 27.1876 5.3193 27.1876 6.5625C27.1876 7.8057 26.6937 8.99799 25.8147 9.87706C24.9356 10.7561 23.7433 11.25 22.5001 11.25C21.2569 11.25 20.0646 10.7561 19.1855 9.87706C18.3065 8.99799 17.8126 7.8057 17.8126 6.5625ZM29.0626 6.5625C29.0626 5.7007 28.8929 4.84734 28.5631 4.05114C28.2333 3.25494 27.7499 2.5315 27.1405 1.92211C26.5311 1.31273 25.8077 0.829337 25.0115 0.499541C24.2153 0.169744 23.3619 0 22.5001 0C21.6383 0 20.7849 0.169744 19.9888 0.499541C19.1926 0.829337 18.4691 1.31273 17.8597 1.92211C17.2503 2.5315 16.7669 3.25494 16.4371 4.05114C16.1074 4.84734 15.9376 5.7007 15.9376 6.5625C15.9376 7.4243 16.1074 8.27766 16.4371 9.07386C16.7669 9.87006 17.2503 10.5935 17.8597 11.2029C18.4691 11.8123 19.1926 12.2957 19.9888 12.6255C20.7849 12.9553 21.6383 13.125 22.5001 13.125C23.3619 13.125 24.2153 12.9553 25.0115 12.6255C25.8077 12.2957 26.5311 11.8123 27.1405 11.2029C27.7499 10.5935 28.2333 9.87006 28.5631 9.07386C28.8929 8.27766 29.0626 7.4243 29.0626 6.5625ZM14.297 20.3789C15.4337 18.2227 17.672 16.875 20.0978 16.875H29.4259H45.0001C46.0314 16.875 46.8751 17.7188 46.8751 18.75C46.8751 19.7812 46.0314 20.625 45.0001 20.625H30.9376C29.9064 20.625 29.0626 21.4688 29.0626 22.5V29.0391V29.0625V56.25C29.0626 57.2812 28.2189 58.125 27.1876 58.125C26.1564 58.125 25.3126 57.2812 25.3126 56.25V42.1875C25.3126 40.6289 24.0587 39.375 22.5001 39.375C20.9415 39.375 19.6876 40.6289 19.6876 42.1875V56.25C19.6876 57.2812 18.8439 58.125 17.8126 58.125C16.7814 58.125 15.9376 57.2812 15.9376 56.25V29.0625C15.9376 28.5469 15.5157 28.125 15.0001 28.125C14.4845 28.125 14.0626 28.5469 14.0626 29.0625V56.25C14.0626 58.3242 15.7384 60 17.8126 60C19.8868 60 21.5626 58.3242 21.5626 56.25V42.1875C21.5626 41.6719 21.9845 41.25 22.5001 41.25C23.0157 41.25 23.4376 41.6719 23.4376 42.1875V56.25C23.4376 58.3242 25.1134 60 27.1876 60C29.2618 60 30.9376 58.3242 30.9376 56.25V30.0234V30V22.5H45.0001C47.0743 22.5 48.7501 20.8242 48.7501 18.75C48.7501 16.6758 47.0743 15 45.0001 15H39.3751V5.625C39.3751 3.55078 41.0509 1.875 43.1251 1.875H69.3751C71.4493 1.875 73.1251 3.55078 73.1251 5.625V31.875C73.1251 33.9492 71.4493 35.625 69.3751 35.625H43.1251C41.0509 35.625 39.3751 33.9492 39.3751 31.875V26.25H37.5001V31.875C37.5001 34.9805 40.0196 37.5 43.1251 37.5H69.3751C72.4806 37.5 75.0001 34.9805 75.0001 31.875V5.625C75.0001 2.51953 72.4806 1.38294e-07 69.3751 1.38294e-07H43.1251C40.0196 1.38294e-07 37.5001 2.51953 37.5001 5.625V15H29.4259H20.0978C16.9689 15 14.0978 16.7344 12.6329 19.5L3.85558 36.1289C3.60948 36.5859 3.78527 37.1484 4.2423 37.3945C4.69933 37.6406 5.26183 37.4648 5.50792 37.0078L14.297 20.3789Z" fill="#E84DB5"/>
</g>
<defs>
<clipPath id="clip0_36_44707">
<rect width="75" height="60" fill="white"/>
</clipPath>
</defs>
</svg>
