<svg width="36" height="32" viewBox="0 0 36 32" fill="none" xmlns="http://www.w3.org/2000/svg">
    <path d="M12.75 0.870117C14.3745 0.870117 15.9324 1.51543 17.081 2.66409C18.2297 3.81275 18.875 5.37067 18.875 6.99512C18.875 8.61957 18.2297 10.1775 17.081 11.3261C15.9324 12.4748 14.3745 13.1201 12.75 13.1201C11.1256 13.1201 9.56763 12.4748 8.41897 11.3261C7.27031 10.1775 6.625 8.61957 6.625 6.99512C6.625 5.37067 7.27031 3.81275 8.41897 2.66409C9.56763 1.51543 11.1256 0.870117 12.75 0.870117ZM12.75 13.9951C14.6065 13.9951 16.387 13.2576 17.6997 11.9449C19.0125 10.6321 19.75 8.85163 19.75 6.99512C19.75 5.1386 19.0125 3.35812 17.6997 2.04537C16.387 0.732615 14.6065 -0.00488281 12.75 -0.00488281C10.8935 -0.00488281 9.11301 0.732615 7.80025 2.04537C6.4875 3.35812 5.75 5.1386 5.75 6.99512C5.75 8.85163 6.4875 10.6321 7.80025 11.9449C9.11301 13.2576 10.8935 13.9951 12.75 13.9951ZM10.2508 17.4951H15.2492C20.1492 17.4951 24.125 21.4709 24.125 26.3709C24.125 26.7865 23.7914 27.1201 23.3758 27.1201H2.12422C1.70859 27.1201 1.375 26.7865 1.375 26.3709C1.375 21.4709 5.35078 17.4951 10.2508 17.4951ZM10.2508 16.6201C4.86406 16.6201 0.5 20.9842 0.5 26.3709C0.5 27.2678 1.22734 27.9951 2.12422 27.9951H23.3758C24.2727 27.9951 25 27.2678 25 26.3709C25 20.9842 20.6359 16.6201 15.2492 16.6201H10.2508ZM34.9367 8.18184C35.1063 8.01231 35.1063 7.7334 34.9367 7.56387C34.7672 7.39434 34.4883 7.39434 34.3188 7.56387L27.625 14.2521L24.4367 11.0639C24.2672 10.8943 23.9883 10.8943 23.8188 11.0639C23.6492 11.2334 23.6492 11.5123 23.8188 11.6818L27.3188 15.1818C27.4883 15.3514 27.7672 15.3514 27.9367 15.1818L34.9367 8.18184Z" fill="#E84DB5"/>
</svg>