<svg width="60" height="60" viewBox="0 0 60 60" fill="none" xmlns="http://www.w3.org/2000/svg">
<g clip-path="url(#clip0_36_44618)">
<path opacity="0.4" d="M1.88664 56.7138C1.8632 57.5107 2.47258 58.1201 3.26945 58.0966C5.40227 58.0498 8.30852 57.8271 11.121 57.1591C13.9804 56.4795 16.5234 55.3896 18.1757 53.7373C21.4687 50.4443 21.4687 45.0888 18.1757 41.7959C14.8827 38.5029 9.52727 38.5029 6.2343 41.7959C4.59367 43.4599 3.50383 46.0029 2.82414 48.8623C2.15617 51.6865 1.93352 54.581 1.88664 56.7138ZM2.19133 30.5107C1.87492 31.1318 2.33195 31.8701 3.03508 31.8701H15.9843H16.1249C17.5898 25.8466 19.5937 20.9013 21.9609 16.8701H11.9179C10.1366 16.8701 8.51945 17.8779 7.72258 19.4599L2.19133 30.5107ZM18.0116 32.0341C20.4726 32.456 22.7695 33.6279 24.5624 35.4209C26.3554 37.2138 27.5273 39.5107 27.9491 41.9716C42.6913 38.3388 50.4257 31.4248 54.328 24.288C58.3593 16.917 58.453 9.01851 57.5273 3.60445C57.4218 3.01851 56.9765 2.5732 56.3906 2.46773C50.9765 1.54195 43.078 1.6357 35.707 5.66695C28.5702 9.5693 21.6562 17.3037 18.0234 32.0459L18.0116 32.0341ZM28.1249 43.8701V44.0107V56.9599C28.1249 57.6513 28.8632 58.1084 29.4843 57.8037L40.5351 52.2724C42.1288 51.4755 43.1249 49.8584 43.1249 48.0771V38.0341C39.0937 40.4013 34.1484 42.4052 28.1249 43.8701ZM49.6874 16.8701C49.6874 18.6106 48.996 20.2798 47.7653 21.5105C46.5346 22.7412 44.8654 23.4326 43.1249 23.4326C41.3844 23.4326 39.7152 22.7412 38.4845 21.5105C37.2538 20.2798 36.5624 18.6106 36.5624 16.8701C36.5624 15.1296 37.2538 13.4604 38.4845 12.2297C39.7152 10.999 41.3844 10.3076 43.1249 10.3076C44.8654 10.3076 46.5346 10.999 47.7653 12.2297C48.996 13.4604 49.6874 15.1296 49.6874 16.8701Z" fill="#E84DB5"/>
<path d="M24.5743 35.4208C22.7814 33.6278 20.4845 32.456 18.0235 32.0341C21.6564 17.2919 28.5704 9.55754 35.7071 5.6552C43.0782 1.63567 50.9767 1.54192 56.3907 2.4677C56.9767 2.57317 57.422 3.01848 57.5274 3.60442C58.4649 9.00676 58.3712 16.9052 54.34 24.288C50.4376 31.4247 42.7032 38.3388 27.961 41.9716C27.5392 39.5107 26.3673 37.2138 24.5743 35.4208ZM28.1251 44.0107V43.87C34.1485 42.4052 39.0939 40.4013 43.1251 38.0341V48.0771C43.1251 49.8583 42.1173 51.4755 40.5353 52.2724L29.4845 57.8036C28.8634 58.12 28.1251 57.663 28.1251 56.9599V44.0107ZM45.0001 48.0771V36.8622C59.8712 27.0419 60.879 12.0068 59.3673 3.28801C59.1329 1.92864 58.0665 0.86223 56.7071 0.627855C47.9884 -0.883863 32.965 0.123948 23.1329 14.995H11.9181C9.4337 14.995 7.16026 16.4013 6.04698 18.6279L0.515734 29.6786C-0.421766 31.5536 0.937609 33.745 3.03527 33.745H15.9845C18.7032 33.745 21.3165 34.8232 23.2384 36.7568C25.1603 38.6904 26.2501 41.2919 26.2501 44.0107V56.9599C26.2501 59.0458 28.4532 60.4052 30.3165 59.4794L41.3673 53.9482C43.5939 52.8349 45.0001 50.5614 45.0001 48.0771ZM16.1368 31.87H15.9962H3.03527C2.34386 31.87 1.88683 31.1318 2.19152 30.5107L7.72276 19.4599C8.51964 17.8661 10.1368 16.87 11.9181 16.87H21.961C19.5939 20.9013 17.59 25.8466 16.1251 31.87H16.1368ZM18.1876 53.7489C16.5353 55.4013 13.9923 56.4911 11.1329 57.1708C8.3087 57.8388 5.41417 58.0614 3.28136 58.1083C2.48448 58.1318 1.87511 57.5224 1.89855 56.7255C1.94542 54.5927 2.16808 51.6864 2.83605 48.8739C3.51573 46.0146 4.60558 43.4716 6.25792 41.8193C9.55089 38.5263 14.9064 38.5263 18.1993 41.8193C21.4923 45.1122 21.4923 50.4677 18.1993 53.7607L18.1876 53.7489ZM19.5118 55.0732C23.5431 51.0419 23.5431 44.5146 19.5118 40.4833C15.4806 36.4521 8.95323 36.4521 4.92198 40.4833C0.902453 44.4911 0.117297 52.2607 0.0118281 56.6786C-0.0350469 58.5536 1.44152 60.0302 3.31652 59.9833C7.73448 59.8778 15.504 59.0927 19.5118 55.0732ZM47.8126 16.87C47.8126 18.1132 47.3187 19.3055 46.4397 20.1846C45.5606 21.0637 44.3683 21.5575 43.1251 21.5575C41.8819 21.5575 40.6896 21.0637 39.8105 20.1846C38.9315 19.3055 38.4376 18.1132 38.4376 16.87C38.4376 15.6268 38.9315 14.4346 39.8105 13.5555C40.6896 12.6764 41.8819 12.1825 43.1251 12.1825C44.3683 12.1825 45.5606 12.6764 46.4397 13.5555C47.3187 14.4346 47.8126 15.6268 47.8126 16.87ZM43.1251 10.3075C42.2633 10.3075 41.41 10.4773 40.6138 10.8071C39.8176 11.1369 39.0941 11.6203 38.4847 12.2297C37.8753 12.839 37.3919 13.5625 37.0621 14.3587C36.7324 15.1549 36.5626 16.0082 36.5626 16.87C36.5626 17.7318 36.7324 18.5852 37.0621 19.3814C37.3919 20.1776 37.8753 20.901 38.4847 21.5104C39.0941 22.1198 39.8176 22.6032 40.6138 22.933C41.41 23.2628 42.2633 23.4325 43.1251 23.4325C43.9869 23.4325 44.8403 23.2628 45.6365 22.933C46.4327 22.6032 47.1561 22.1198 47.7655 21.5104C48.3749 20.901 48.8583 20.1776 49.1881 19.3814C49.5179 18.5852 49.6876 17.7318 49.6876 16.87C49.6876 16.0082 49.5179 15.1549 49.1881 14.3587C48.8583 13.5625 48.3749 12.839 47.7655 12.2297C47.1561 11.6203 46.4327 11.1369 45.6365 10.8071C44.8403 10.4773 43.9869 10.3075 43.1251 10.3075Z" fill="#E84DB5"/>
</g>
<defs>
<clipPath id="clip0_36_44618">
<rect width="60" height="60" fill="white" transform="translate(0 -0.00488281)"/>
</clipPath>
</defs>
</svg>
