<svg width="40" height="32" viewBox="0 0 40 32" fill="none" xmlns="http://www.w3.org/2000/svg">
    <g clip-path="url(#clip0_200_137)">
        <path opacity="0.4" d="M0.5 18.9951H13.7563C12.6562 17.6264 12 15.8889 12 13.9951C12 13.6576 12.0188 13.3201 12.0625 12.9951H6.5C3.4625 12.9951 1 15.4576 1 18.4951C1 18.7701 0.775 18.9951 0.5 18.9951ZM5 4.99512C5 6.05598 5.42143 7.0734 6.17157 7.82354C6.92172 8.57369 7.93913 8.99512 9 8.99512C10.0609 8.99512 11.0783 8.57369 11.8284 7.82354C12.5786 7.0734 13 6.05598 13 4.99512C13 3.93425 12.5786 2.91684 11.8284 2.16669C11.0783 1.41654 10.0609 0.995117 9 0.995117C7.93913 0.995117 6.92172 1.41654 6.17157 2.16669C5.42143 2.91684 5 3.93425 5 4.99512ZM9 30.3264C9 30.6951 9.3 30.9951 9.66875 30.9951H30.3375C30.7062 30.9951 31.0063 30.6951 31.0063 30.3264C31 26.2764 27.7188 22.9951 23.6688 22.9951H16.3375C12.2812 22.9951 9 26.2764 9 30.3264ZM15 13.9951C15 15.3212 15.5268 16.593 16.4645 17.5307C17.4021 18.4683 18.6739 18.9951 20 18.9951C21.3261 18.9951 22.5979 18.4683 23.5355 17.5307C24.4732 16.593 25 15.3212 25 13.9951C25 12.669 24.4732 11.3973 23.5355 10.4596C22.5979 9.5219 21.3261 8.99512 20 8.99512C18.6739 8.99512 17.4021 9.5219 16.4645 10.4596C15.5268 11.3973 15 12.669 15 13.9951ZM26.2437 18.9951H39.5C39.225 18.9951 39 18.7701 39 18.4951C39 15.4576 36.5375 12.9951 33.5 12.9951H27.9375C27.9813 13.3201 28 13.6576 28 13.9951C28 15.8889 27.3438 17.6264 26.2437 18.9951ZM28 4.99512C28 6.05598 28.4214 7.0734 29.1716 7.82354C29.9217 8.57369 30.9391 8.99512 32 8.99512C33.0609 8.99512 34.0783 8.57369 34.8284 7.82354C35.5786 7.0734 36 6.05598 36 4.99512C36 3.93425 35.5786 2.91684 34.8284 2.16669C34.0783 1.41654 33.0609 0.995117 32 0.995117C30.9391 0.995117 29.9217 1.41654 29.1716 2.16669C28.4214 2.91684 28 3.93425 28 4.99512Z" fill="#E84DB5"/>
        <path d="M5 4.99512C5 3.93425 5.42143 2.91684 6.17157 2.16669C6.92172 1.41654 7.93913 0.995117 9 0.995117C10.0609 0.995117 11.0783 1.41654 11.8284 2.16669C12.5786 2.91684 13 3.93425 13 4.99512C13 6.05598 12.5786 7.0734 11.8284 7.82354C11.0783 8.57369 10.0609 8.99512 9 8.99512C7.93913 8.99512 6.92172 8.57369 6.17157 7.82354C5.42143 7.0734 5 6.05598 5 4.99512ZM14 4.99512C14 3.66903 13.4732 2.39727 12.5355 1.45958C11.5979 0.521901 10.3261 -0.00488281 9 -0.00488281C7.67392 -0.00488281 6.40215 0.521901 5.46447 1.45958C4.52678 2.39727 4 3.66903 4 4.99512C4 6.3212 4.52678 7.59297 5.46447 8.53065C6.40215 9.46833 7.67392 9.99512 9 9.99512C10.3261 9.99512 11.5979 9.46833 12.5355 8.53065C13.4732 7.59297 14 6.3212 14 4.99512ZM20 8.99512C21.3261 8.99512 22.5979 9.5219 23.5355 10.4596C24.4732 11.3973 25 12.669 25 13.9951C25 15.3212 24.4732 16.593 23.5355 17.5307C22.5979 18.4683 21.3261 18.9951 20 18.9951C18.6739 18.9951 17.4021 18.4683 16.4645 17.5307C15.5268 16.593 15 15.3212 15 13.9951C15 12.669 15.5268 11.3973 16.4645 10.4596C17.4021 9.5219 18.6739 8.99512 20 8.99512ZM20 19.9951C20.7879 19.9951 21.5681 19.8399 22.2961 19.5384C23.0241 19.2369 23.6855 18.7949 24.2426 18.2378C24.7998 17.6806 25.2417 17.0192 25.5433 16.2912C25.8448 15.5633 26 14.783 26 13.9951C26 13.2072 25.8448 12.427 25.5433 11.699C25.2417 10.9711 24.7998 10.3096 24.2426 9.75248C23.6855 9.19532 23.0241 8.75337 22.2961 8.45184C21.5681 8.15031 20.7879 7.99512 20 7.99512C19.2121 7.99512 18.4319 8.15031 17.7039 8.45184C16.9759 8.75337 16.3145 9.19532 15.7574 9.75248C15.2002 10.3096 14.7583 10.9711 14.4567 11.699C14.1552 12.427 14 13.2072 14 13.9951C14 14.783 14.1552 15.5633 14.4567 16.2912C14.7583 17.0192 15.2002 17.6806 15.7574 18.2378C16.3145 18.7949 16.9759 19.2369 17.7039 19.5384C18.4319 19.8399 19.2121 19.9951 20 19.9951ZM16.3312 22.9951H23.6625C27.7188 22.9951 31 26.2764 31 30.3264C31 30.6951 30.7 30.9951 30.3312 30.9951H9.6625C9.29375 30.9951 8.99375 30.6951 8.99375 30.3264C9 26.2764 12.2812 22.9951 16.3312 22.9951ZM16.3312 21.9951C11.7312 21.9951 8 25.7264 8 30.3264C8 31.2451 8.74375 31.9951 9.66875 31.9951H30.3375C31.2563 31.9951 32.0062 31.2514 32.0062 30.3264C32 25.7264 28.2688 21.9951 23.6688 21.9951H16.3375H16.3312ZM32 0.995117C33.0609 0.995117 34.0783 1.41654 34.8284 2.16669C35.5786 2.91684 36 3.93425 36 4.99512C36 6.05598 35.5786 7.0734 34.8284 7.82354C34.0783 8.57369 33.0609 8.99512 32 8.99512C30.9391 8.99512 29.9217 8.57369 29.1716 7.82354C28.4214 7.0734 28 6.05598 28 4.99512C28 3.93425 28.4214 2.91684 29.1716 2.16669C29.9217 1.41654 30.9391 0.995117 32 0.995117ZM32 9.99512C33.3261 9.99512 34.5979 9.46833 35.5355 8.53065C36.4732 7.59297 37 6.3212 37 4.99512C37 3.66903 36.4732 2.39727 35.5355 1.45958C34.5979 0.521901 33.3261 -0.00488281 32 -0.00488281C30.6739 -0.00488281 29.4021 0.521901 28.4645 1.45958C27.5268 2.39727 27 3.66903 27 4.99512C27 6.3212 27.5268 7.59297 28.4645 8.53065C29.4021 9.46833 30.6739 9.99512 32 9.99512ZM33.5 12.9951C36.5375 12.9951 39 15.4576 39 18.4951C39 18.7701 39.225 18.9951 39.5 18.9951C39.775 18.9951 40 18.7701 40 18.4951C40 14.9076 37.0875 11.9951 33.5 11.9951H27.75C27.8312 12.3201 27.9 12.6576 27.9375 12.9951H33.5ZM12.0625 12.9951C12.1062 12.6576 12.1687 12.3201 12.25 11.9951H6.5C2.9125 11.9951 0 14.9076 0 18.4951C0 18.7701 0.225 18.9951 0.5 18.9951C0.775 18.9951 1 18.7701 1 18.4951C1 15.4576 3.4625 12.9951 6.5 12.9951H12.0625Z" fill="#E84DB5"/>
    </g>
    <defs>
        <clipPath id="clip0_200_137">
            <rect width="40" height="32" fill="white" transform="translate(0 -0.00488281)"/>
        </clipPath>
    </defs>
</svg>