<svg width="288" height="40" viewBox="0 0 288 40" fill="none" xmlns="http://www.w3.org/2000/svg">
<path d="M0 16.8346V39.3309H28.1638V33.2548H6.61091V22.8704H25.4749V16.7942L0 16.8373V16.8346ZM266.992 10.7692C266.994 9.47216 267.591 8.25585 268.605 7.48354C269.911 6.50673 271.508 6.02774 273.118 6.13C274.867 6.13538 276.601 6.48251 278.224 7.15256C280.041 7.91141 281.756 8.90706 283.329 10.1126L286.877 4.97558C285.013 3.43366 282.916 2.21197 280.669 1.35625C278.279 0.495145 275.757 0.0753567 273.226 0.11303C271.474 0.0941934 269.733 0.365979 268.065 0.914933C266.578 1.3993 265.201 2.17699 264.007 3.20762C262.887 4.18982 261.981 5.40344 261.347 6.77044C260.687 8.21548 260.357 9.79238 260.378 11.3881C260.334 12.9596 260.619 14.5231 261.211 15.9735C261.763 17.2221 262.591 18.3173 263.63 19.1784C264.811 20.131 266.136 20.8791 267.555 21.3877C269.304 22.0335 271.089 22.569 272.901 22.9888C274.346 23.3359 275.771 23.7611 277.174 24.2589C278.088 24.5738 278.954 25.0097 279.755 25.5614C280.313 25.9381 280.758 26.4628 281.046 27.0791C281.287 27.6737 281.402 28.3142 281.392 28.9573C281.428 30.3916 280.75 31.7452 279.59 32.5471C278.145 33.5023 276.443 33.9652 274.726 33.8737C272.545 33.9114 270.382 33.4674 268.385 32.5713C266.374 31.6079 264.51 30.3512 262.847 28.8443L258.87 33.7069C261.012 35.7332 263.512 37.3181 266.233 38.3757C268.898 39.3902 271.72 39.9041 274.564 39.8934C276.399 39.9122 278.229 39.6512 279.991 39.1211C281.538 38.6609 282.981 37.8913 284.238 36.8553C285.413 35.8677 286.358 34.6218 287.003 33.209C287.686 31.6671 288.026 29.988 287.997 28.2927C288.029 26.8422 287.764 25.4026 287.217 24.0679C286.688 22.8596 285.908 21.7833 284.934 20.9195C283.806 19.94 282.525 19.165 281.146 18.6268C279.436 17.9406 277.687 17.3674 275.907 16.9153C274.116 16.474 272.637 16.0488 271.474 15.6452C270.505 15.3357 269.581 14.889 268.733 14.3186C268.152 13.9338 267.68 13.4009 267.361 12.7713C267.097 12.1443 266.968 11.4662 266.987 10.7827L266.997 10.7719L266.992 10.7692ZM245.866 0.661984V39.3309H252.477V0.661984H245.866ZM217.807 10.7692C217.809 9.47216 218.406 8.25585 219.419 7.48354C220.726 6.50673 222.323 6.02774 223.933 6.13C225.682 6.13538 227.415 6.48251 229.039 7.15256C230.856 7.91141 232.571 8.90706 234.144 10.1126L237.692 4.97558C235.828 3.43366 233.73 2.21197 231.484 1.35625C229.094 0.495145 226.572 0.0753567 224.041 0.11303C222.289 0.0941934 220.548 0.365979 218.88 0.914933C217.393 1.39661 216.016 2.17699 214.822 3.20762C213.701 4.18982 212.795 5.40344 212.162 6.77044C211.502 8.21548 211.172 9.79238 211.193 11.3881C211.149 12.9596 211.434 14.5231 212.026 15.9735C212.578 17.2221 213.405 18.3173 214.445 19.1784C215.626 20.131 216.95 20.8791 218.37 21.3877C220.118 22.0335 221.904 22.569 223.716 22.9888C225.161 23.3359 226.585 23.7611 227.989 24.2589C228.9 24.5738 229.769 25.0097 230.568 25.5614C231.125 25.9381 231.57 26.4628 231.858 27.0791C232.097 27.6737 232.214 28.3142 232.204 28.9573C232.241 30.3916 231.563 31.7452 230.403 32.5471C228.957 33.5023 227.256 33.9652 225.538 33.8737C223.357 33.9114 221.195 33.4674 219.197 32.5713C217.186 31.6079 215.322 30.3512 213.659 28.8443L209.682 33.7069C211.824 35.7332 214.324 37.3181 217.045 38.3757C219.71 39.3902 222.532 39.9041 225.376 39.8934C227.214 39.9122 229.041 39.6512 230.806 39.1211C232.353 38.6609 233.796 37.8913 235.053 36.8553C236.228 35.8677 237.173 34.6218 237.817 33.209C238.501 31.6671 238.841 29.988 238.812 28.2927C238.844 26.8422 238.579 25.4026 238.035 24.0679C237.506 22.8596 236.726 21.7833 235.752 20.9195C234.623 19.94 233.343 19.165 231.963 18.6268C230.253 17.9406 228.505 17.3674 226.724 16.9153C224.933 16.474 223.454 16.0488 222.292 15.6452C221.323 15.3357 220.399 14.889 219.55 14.3186C218.969 13.9338 218.498 13.4009 218.178 12.7713C217.914 12.1443 217.786 11.4662 217.804 10.7827L217.814 10.7719L217.807 10.7692ZM205.595 19.94C205.609 17.2894 205.116 14.6603 204.145 12.2062C202.278 7.38936 198.594 3.55207 193.934 1.57153C191.413 0.497836 188.708 -0.0376632 185.98 -0.00268085C180.662 -0.0834094 175.541 2.05859 171.792 5.93356C170.033 7.76071 168.645 9.92962 167.708 12.3138C165.773 17.2786 165.773 22.8166 167.708 27.7814C169.574 32.5982 173.258 36.4328 177.919 38.4133C180.44 39.487 183.145 40.0225 185.873 39.9875C191.19 40.0683 196.311 37.9236 200.061 34.0486C201.82 32.2215 203.208 30.0526 204.145 27.6684C205.116 25.2142 205.611 22.5852 205.595 19.9346V19.94ZM198.662 20.0503C198.673 21.8721 198.354 23.6777 197.723 25.3784C197.133 26.9902 196.249 28.473 195.115 29.7431C193.989 30.989 192.625 31.9847 191.112 32.6708C187.823 34.1159 184.1 34.1078 180.82 32.6439C179.285 31.9389 177.906 30.9244 176.761 29.6597C175.617 28.3842 174.724 26.8934 174.127 25.268C172.873 21.8317 172.873 18.0482 174.127 14.6119C174.717 13 175.602 11.5173 176.735 10.2472C177.861 9.00124 179.225 8.00559 180.738 7.3194C184.027 5.87436 187.75 5.88243 191.03 7.34631C192.565 8.05134 193.945 9.06582 195.089 10.3279C196.233 11.6034 197.126 13.0942 197.723 14.7195C198.354 16.4202 198.673 18.2258 198.662 20.0476V20.0503ZM152.865 27.3966L132.705 0.659293H126.579V39.3283H133.082V11.8187L153.829 39.3283H159.366V0.661984H152.863V27.3993H152.865V27.3966ZM119.114 33.9679V17.728H103.099V23.6373H112.721V30.8733C111.487 31.8044 110.118 32.5228 108.662 33.0045C107.039 33.5481 105.343 33.8199 103.636 33.8064C101.837 33.8333 100.051 33.4754 98.3965 32.757C96.8728 32.0842 95.5008 31.0966 94.3645 29.8561C93.2152 28.5887 92.3276 27.0952 91.7568 25.4645C91.1337 23.6938 90.8248 21.8236 90.8431 19.94C90.8326 18.1263 91.152 16.3287 91.783 14.6361C92.3773 13.0323 93.2518 11.555 94.3645 10.2714C95.4459 9.02546 96.7628 8.01904 98.2342 7.31132C99.7397 6.59015 101.384 6.22149 103.044 6.23494C104.136 6.22687 105.225 6.32913 106.296 6.53902C107.225 6.7247 108.134 7.00186 109.011 7.36783C109.838 7.72035 110.631 8.15628 111.375 8.67025C112.142 9.19768 112.878 9.76816 113.579 10.3817L117.771 5.24467C116.834 4.42124 115.836 3.67316 114.789 3.0058C113.757 2.35728 112.668 1.81102 111.537 1.37778C110.325 0.917624 109.076 0.575874 107.801 0.355216C106.317 0.104957 104.814 -0.0134447 103.308 1.01025e-05C100.622 -0.0295904 97.9593 0.516673 95.4877 1.60113C90.8405 3.6301 87.1803 7.49162 85.3292 12.3192C84.3736 14.7787 83.8918 17.4051 83.9049 20.053C83.8813 22.752 84.3552 25.4349 85.303 27.9536C87.0886 32.7596 90.7541 36.5781 95.4066 38.4752C97.9541 39.5166 100.674 40.0333 103.416 39.9929C105.005 39.9983 106.589 39.8395 108.147 39.5193C110.943 38.9488 113.611 37.8536 116.02 36.2875C117.101 35.5878 118.132 34.8128 119.109 33.9679V33.9625L119.114 33.9679ZM70.0416 0.659293V39.3283H76.6525V0.659293H70.0416ZM64.0172 13.6404C64.046 11.8025 63.7056 9.97806 63.0223 8.28276C62.3756 6.722 61.4042 5.3254 60.1737 4.1952C58.862 3.00849 57.3251 2.1151 55.6599 1.57153C53.7408 0.941843 51.7353 0.632384 49.7193 0.659293H34.8847V6.84579H49.1878C51.2928 6.73277 53.3717 7.34631 55.0997 8.58683C56.6182 9.85427 57.4403 11.8025 57.3042 13.8073C57.3749 15.7475 56.5711 17.6096 55.1285 18.8609C53.4371 20.2117 51.3269 20.8899 49.1878 20.7661C44.4149 20.7661 39.6707 20.7822 34.8899 20.7822V39.3283H41.5008V26.8961H48.9705C50.9525 26.9095 52.9266 26.6216 54.8274 26.0403C56.5606 25.5183 58.1839 24.6653 59.6108 23.527C60.9775 22.4156 62.0797 20.9975 62.8364 19.3829C63.6506 17.5881 64.0538 15.6237 64.0146 13.6431L64.0172 13.6404Z" fill="white"/>
<path d="M28.2476 0.662473H0V6.73767H28.2476V0.662473Z" fill="white"/>
</svg>
