<svg width="256" height="256" viewBox="0 0 256 256" fill="none" xmlns="http://www.w3.org/2000/svg">
<path d="M0 128C0 57.3076 57.3076 0 128 0C198.692 0 256 57.3076 256 128C256 198.692 198.692 256 128 256C57.3076 256 0 198.692 0 128Z" fill="#E84CB5"/>
<path d="M203.206 70.7461L190.312 66.8272L189.876 66.6939C185.851 65.4702 182.7 62.3231 181.475 58.3022L177.418 44.986L173.362 58.3022C172.137 62.3231 168.986 65.4702 164.961 66.6939L164.524 66.8272L151.63 70.7461L164.524 74.6651L164.961 74.7984C168.986 76.0221 172.137 79.1692 173.362 83.1901L177.418 96.5062L181.475 83.1901C182.7 79.1692 185.851 76.0221 189.876 74.7984L190.312 74.6651L203.206 70.7461Z" fill="white"/>
<path d="M213.705 47.3785L207.258 45.419L207.04 45.3531C205.027 44.7413 203.451 43.1678 202.84 41.1581L202.774 40.94L200.813 34.5L198.851 40.94L198.785 41.1581C198.173 43.1693 196.598 44.7429 194.586 45.3531L194.367 45.419L187.92 47.3785L194.367 49.3379L194.586 49.4038C196.599 50.0157 198.174 51.5892 198.785 53.5989L198.851 53.8169L200.813 60.257L202.774 53.8169L202.84 53.5989C203.453 51.5876 205.028 50.0141 207.04 49.4038L207.258 49.3379L213.705 47.3785Z" fill="white"/>
<path d="M129.823 86.1599C123.798 81.0298 115.341 78.4632 104.446 78.4632C98.778 78.4632 93.1963 79.1927 87.7057 80.6533C87.6508 80.669 87.5958 80.6831 87.5408 80.6972C79.7463 82.7948 75.8655 91.5331 79.5013 98.7309L80.9289 101.556C83.5862 99.5231 86.7508 97.9072 90.4275 96.7134C94.1025 95.5179 97.8451 94.9202 101.655 94.9202C107.235 94.9202 111.375 96.1611 114.076 98.6367C116.778 101.116 118.129 104.565 118.129 108.989V109.123H101.787C94.4339 109.123 88.5004 110.009 83.9836 111.777C79.4667 113.548 76.1655 116.046 74.0861 119.275C72.0035 122.506 70.9639 126.199 70.9639 130.357C70.9639 131.242 71.0157 132.108 71.1193 132.956H91.921C91.4106 131.916 91.1578 130.74 91.1578 129.428C91.1578 127.039 92.0655 125.048 93.8811 123.456C95.695 121.863 99.0403 121.068 103.912 121.068H118.127V128.368C117.502 130.147 116.635 131.676 115.526 132.956H138.853V110.185C138.853 99.3019 135.843 91.2946 129.82 86.163L129.823 86.1599Z" fill="white"/>
<path d="M169.834 100.227V132.953H149.108V79.5236C160.554 79.5236 169.834 88.7938 169.834 100.227Z" fill="white"/>
<path d="M30.9996 146.941V156.211H44.291V164.703H30.9996V183.543H21V138.449H45.4281V146.941H30.9996Z" fill="white"/>
<path d="M81.0816 177.263C80.4628 178.818 79.5347 180.114 78.2971 181.151C76.8993 182.346 75.233 183.204 73.2981 183.722C71.3616 184.24 69.2571 184.5 66.9814 184.5C64.7057 184.5 62.5305 184.24 60.5752 183.722C58.6183 183.204 56.9426 182.346 55.5464 181.151C53.0712 179.037 51.8336 175.848 51.8336 171.581V153.459H61.1139V169.667C61.1139 170.704 61.183 171.67 61.3228 172.568C61.4626 173.465 61.7421 174.241 62.1614 174.9C62.5808 175.558 63.1697 176.077 63.9283 176.455C64.6869 176.835 65.6841 177.023 66.9217 177.023C68.1593 177.023 69.1566 176.844 69.9152 176.485C70.6737 176.126 71.2627 175.617 71.682 174.96C72.1013 174.303 72.3793 173.525 72.5207 172.627C72.6604 171.73 72.7295 170.763 72.7295 169.726V153.459H82.0098V171.521C82.0098 173.794 81.7004 175.708 81.0816 177.263Z" fill="white"/>
<path d="M99.4919 161.175V183.543H90.2117V161.175H86.7392V153.459H90.152V144.129H99.4323V153.459H105.419V161.175H99.4919Z" fill="white"/>
<path d="M138.08 177.263C137.461 178.818 136.533 180.114 135.295 181.151C133.898 182.346 132.231 183.204 130.296 183.722C128.36 184.24 126.255 184.5 123.98 184.5C121.704 184.5 119.529 184.24 117.574 183.722C115.617 183.204 113.941 182.346 112.545 181.151C110.07 179.037 108.832 175.848 108.832 171.581V153.459H118.112V169.667C118.112 170.704 118.181 171.67 118.321 172.568C118.461 173.465 118.74 174.241 119.16 174.9C119.579 175.558 120.168 176.077 120.927 176.455C121.685 176.835 122.682 177.023 123.92 177.023C125.158 177.023 126.155 176.844 126.914 176.485C127.672 176.126 128.261 175.617 128.68 174.96C129.1 174.303 129.378 173.525 129.519 172.627C129.659 171.73 129.728 170.763 129.728 169.726V153.459H139.008V171.521C139.008 173.794 138.699 175.708 138.08 177.263Z" fill="white"/>
<path d="M164.903 161.264C164.164 161.124 163.436 161.095 162.717 161.175C161.439 161.215 160.352 161.514 159.454 162.072C158.555 162.631 157.817 163.349 157.238 164.224C156.658 165.101 156.239 166.109 155.98 167.244C155.719 168.38 155.59 169.548 155.59 170.743V183.541H146.25V153.458H155.59V158.062H155.65C157.605 154.673 160.619 152.979 164.69 152.979H167.145V162.13C166.386 161.692 165.637 161.404 164.899 161.263L164.903 161.264Z" fill="white"/>
<path d="M171.577 183.543V138.449H196.484V146.941H181.575V156.211H195.825V164.703H181.575V174.99H196.484V183.543H171.577Z" fill="white"/>
<path d="M226.66 183.543V179.775H226.541C225.542 181.37 224.166 182.556 222.411 183.333C220.653 184.111 218.858 184.499 217.022 184.499C214.786 184.499 212.731 184.07 210.855 183.212C208.978 182.356 207.371 181.199 206.035 179.743C204.697 178.289 203.66 176.584 202.922 174.631C202.182 172.677 201.815 170.624 201.815 168.47C201.815 166.316 202.174 164.273 202.892 162.339C203.61 160.406 204.629 158.712 205.945 157.256C207.263 155.802 208.849 154.645 210.705 153.787C212.562 152.931 214.607 152.501 216.843 152.501C218.679 152.501 220.474 152.86 222.232 153.577C223.987 154.294 225.445 155.372 226.602 156.807V133.96H235.942V183.542H226.662L226.66 183.543ZM217.14 160.816C215.343 161.255 213.936 162.191 212.918 163.627C211.901 165.062 211.392 166.677 211.392 168.471C211.392 169.548 211.571 170.575 211.93 171.551C212.29 172.528 212.799 173.376 213.457 174.092C214.115 174.809 214.924 175.379 215.882 175.798C216.84 176.217 217.917 176.425 219.116 176.425C220.314 176.425 221.46 176.217 222.439 175.798C223.417 175.379 224.236 174.811 224.894 174.092C225.552 173.374 226.06 172.538 226.42 171.581C226.78 170.624 226.959 169.587 226.959 168.471C226.959 166.677 226.489 165.092 225.552 163.716C224.614 162.34 223.285 161.413 221.57 160.935C220.892 160.736 220.154 160.626 219.356 160.605C218.556 160.586 217.818 160.656 217.14 160.814V160.816Z" fill="white"/>
</svg>
