<svg width="215" height="151" viewBox="0 0 215 151" fill="none" xmlns="http://www.w3.org/2000/svg">
<path d="M182.206 36.7461L169.312 32.8272L168.876 32.6939C164.851 31.4702 161.7 28.3231 160.475 24.3022L160.342 23.8661L156.418 10.986L152.495 23.8661L152.362 24.3022C151.137 28.3231 147.986 31.4702 143.961 32.6939L143.524 32.8272L130.63 36.7461L143.524 40.6651L143.961 40.7984C147.986 42.0221 151.137 45.1692 152.362 49.1901L152.495 49.6262L156.418 62.5062L160.342 49.6262L160.475 49.1901C161.7 45.1692 164.851 42.0221 168.876 40.7984L169.312 40.6651L182.206 36.7461Z" fill="white"/>
<path d="M192.705 13.3785L186.258 11.419L186.04 11.3531C184.027 10.7413 182.451 9.16776 181.84 7.1581L181.774 6.94003L179.813 0.5L177.851 6.94003L177.785 7.1581C177.173 9.16933 175.598 10.7429 173.586 11.3531L173.367 11.419L166.92 13.3785L173.367 15.3379L173.586 15.4038C175.599 16.0157 177.174 17.5892 177.785 19.5989L177.851 19.8169L179.813 26.257L181.774 19.8169L181.84 19.5989C182.453 17.5876 184.028 16.0141 186.04 15.4038L186.258 15.3379L192.705 13.3785Z" fill="white"/>
<path d="M108.823 52.1599C102.798 47.0298 94.3408 44.4632 83.446 44.4632C77.778 44.4632 72.1963 45.1927 66.7057 46.6533C66.6508 46.669 66.5958 46.6831 66.5408 46.6972C58.7463 48.7948 54.8655 57.5331 58.5013 64.7309L59.9289 67.5563C62.5862 65.5231 65.7508 63.9072 69.4275 62.7134C73.1025 61.5179 76.8451 60.9202 80.6552 60.9202C86.2353 60.9202 90.3752 62.1611 93.0765 64.6367C95.7778 67.1155 97.1285 70.5653 97.1285 74.9894V75.1228H80.7871C73.4339 75.1228 67.5004 76.0092 62.9836 77.7772C58.4667 79.5484 55.1655 82.046 53.0861 85.2746C51.0035 88.5064 49.9639 92.1994 49.9639 96.3568C49.9639 97.2416 50.0157 98.1076 50.1193 98.9564H70.921C70.4106 97.9162 70.1578 96.7396 70.1578 95.4281C70.1578 93.0388 71.0655 91.0479 72.8811 89.4556C74.695 87.8632 78.0403 87.0678 82.912 87.0678H97.1269V94.3676C96.5019 96.1466 95.6349 97.6762 94.5261 98.9564H117.853V76.1849C117.853 65.3019 114.843 57.2946 108.82 52.163L108.823 52.1599Z" fill="white"/>
<path d="M148.834 66.2274V98.9531H128.108V45.5236C139.554 45.5236 148.834 54.7938 148.834 66.2274Z" fill="white"/>
<path d="M9.99958 112.941V122.211H23.291V130.703H9.99958V149.543H0V104.449H24.4281V112.941H9.99958Z" fill="white"/>
<path d="M60.0816 143.263C59.4628 144.818 58.5347 146.114 57.2971 147.151C55.8993 148.346 54.233 149.204 52.2981 149.722C50.3616 150.24 48.2571 150.5 45.9814 150.5C43.7057 150.5 41.5305 150.24 39.5752 149.722C37.6183 149.204 35.9426 148.346 34.5464 147.151C32.0712 145.037 30.8336 141.848 30.8336 137.581V119.459H40.1139V135.667C40.1139 136.704 40.183 137.67 40.3228 138.568C40.4626 139.465 40.7421 140.241 41.1614 140.9C41.5808 141.558 42.1697 142.077 42.9283 142.455C43.6869 142.835 44.6841 143.023 45.9217 143.023C47.1593 143.023 48.1566 142.844 48.9152 142.485C49.6737 142.126 50.2627 141.617 50.682 140.96C51.1013 140.303 51.3793 139.525 51.5207 138.627C51.6604 137.73 51.7295 136.763 51.7295 135.726V119.459H61.0098V137.521C61.0098 139.794 60.7004 141.708 60.0816 143.263Z" fill="white"/>
<path d="M78.4919 127.175V149.543H69.2117V127.175H65.7392V119.459H69.152V110.129H78.4323V119.459H84.4191V127.175H78.4919Z" fill="white"/>
<path d="M117.08 143.263C116.461 144.818 115.533 146.114 114.295 147.151C112.898 148.346 111.231 149.204 109.296 149.722C107.36 150.24 105.255 150.5 102.98 150.5C100.704 150.5 98.5289 150.24 96.5735 149.722C94.6167 149.204 92.9409 148.346 91.5447 147.151C89.0695 145.037 87.832 141.848 87.832 137.581V119.459H97.1123V135.667C97.1123 136.704 97.1813 137.67 97.3211 138.568C97.4609 139.465 97.7405 140.241 98.1598 140.9C98.5791 141.558 99.1681 142.077 99.9266 142.455C100.685 142.835 101.682 143.023 102.92 143.023C104.158 143.023 105.155 142.844 105.914 142.485C106.672 142.126 107.261 141.617 107.68 140.96C108.1 140.303 108.378 139.525 108.519 138.627C108.659 137.73 108.728 136.763 108.728 135.726V119.459H118.008V137.521C118.008 139.794 117.699 141.708 117.08 143.263Z" fill="white"/>
<path d="M143.903 127.264C143.164 127.124 142.436 127.095 141.717 127.175C140.439 127.215 139.352 127.514 138.454 128.072C137.555 128.631 136.817 129.349 136.238 130.224C135.658 131.101 135.239 132.109 134.98 133.244C134.719 134.38 134.59 135.548 134.59 136.743V149.541H125.25V119.458H134.59V124.062H134.65C136.605 120.673 139.619 118.979 143.69 118.979H146.145V128.13C145.386 127.692 144.637 127.404 143.899 127.263L143.903 127.264Z" fill="white"/>
<path d="M150.577 149.543V104.449H175.484V112.941H160.575V122.211H174.825V130.703H160.575V140.99H175.484V149.543H150.577Z" fill="white"/>
<path d="M205.66 149.543V145.775H205.541C204.542 147.37 203.166 148.556 201.411 149.333C199.653 150.111 197.858 150.499 196.022 150.499C193.786 150.499 191.731 150.07 189.855 149.212C187.978 148.356 186.371 147.199 185.035 145.743C183.697 144.289 182.66 142.584 181.922 140.631C181.182 138.677 180.815 136.624 180.815 134.47C180.815 132.316 181.174 130.273 181.892 128.339C182.61 126.406 183.629 124.712 184.945 123.256C186.263 121.802 187.849 120.645 189.705 119.787C191.562 118.931 193.607 118.501 195.843 118.501C197.679 118.501 199.474 118.86 201.232 119.577C202.987 120.294 204.445 121.372 205.602 122.807V99.9604H214.942V149.542H205.662L205.66 149.543ZM196.14 126.816C194.343 127.255 192.936 128.191 191.918 129.627C190.901 131.062 190.392 132.677 190.392 134.471C190.392 135.548 190.571 136.575 190.93 137.551C191.29 138.528 191.799 139.376 192.457 140.092C193.115 140.809 193.924 141.379 194.882 141.798C195.84 142.217 196.917 142.425 198.116 142.425C199.314 142.425 200.46 142.217 201.439 141.798C202.417 141.379 203.236 140.811 203.894 140.092C204.552 139.374 205.06 138.538 205.42 137.581C205.78 136.624 205.959 135.587 205.959 134.471C205.959 132.677 205.489 131.092 204.552 129.716C203.614 128.34 202.285 127.413 200.57 126.935C199.892 126.736 199.154 126.626 198.356 126.605C197.556 126.586 196.818 126.656 196.14 126.814V126.816Z" fill="white"/>
</svg>
